<svg xmlns="http://www.w3.org/2000/svg" width="81.35" height="81.35" viewBox="0 0 81.35 81.35"><defs><style>.cls-1{fill:none;}.cls-2{fill:#231f20;}</style></defs><g id="left"><path class="cls-1" d="M131.23,97.39H119.58c-12.47,38.3,0,55.68,0,55.68h11.65C110.43,122.57,131.23,97.39,131.23,97.39Z" transform="translate(-84.33 -84.33)"/><path d="M144.4,89.31H113.1c-16.88,32.57,0,71.38,0,71.38h31.3C113.45,125.69,144.4,89.31,144.4,89.31Zm-13.17,63.76H119.58s-12.47-17.38,0-55.68h11.65S110.43,122.57,131.23,153.07Z" transform="translate(-84.33 -84.33)"/></g><g id="mid"><path class="cls-2" d="M144.05,89.35H105.36c17,36.86,0,71.3,0,71.3h39.28C127.67,122.42,144.05,89.35,144.05,89.35Zm-12.22,63.3H117.24s8.15-24.69,0-55.72h14.59S124.37,124.44,131.83,152.65Z" transform="translate(-84.33 -84.33)"/></g><g id="right"><path class="cls-2" d="M137.3,89.42,106,89.19c30.69,35.23-.52,71.39-.52,71.39l31.3.23C153.9,128.36,137.3,89.42,137.3,89.42Zm-7,63.25-11.64-.08s21-25,.41-55.68l11.65.09S143.11,114.47,130.35,152.67Z" transform="translate(-84.33 -84.33)"/></g><g id="sync"><path class="cls-2" d="M125,130.07c-6.3,6.3-12.86,13.23-22.87,13.23-10.39,0-17.8-7.67-17.8-18.3a18.44,18.44,0,0,1,18.79-18.3c9.15,0,15.95,7.3,21.88,13.23,6.3-6.3,12.86-13.23,22.87-13.23,10.51,0,17.8,7.67,17.8,18.3a18.44,18.44,0,0,1-18.79,18.3C137.73,143.3,130.93,136,125,130.07Zm-5-5.07c-4.82-4.45-9.88-10.88-17.06-10.88A10.89,10.89,0,0,0,92.12,125c0,6.3,4.45,10.88,10.5,10.88C109.67,135.88,115.36,129.82,120.05,125Zm37.83,0c0-6.3-4.45-10.88-10.5-10.88-7,0-12.74,6.06-17.43,10.88,4.82,4.45,9.88,10.88,17.06,10.88A10.89,10.89,0,0,0,157.88,125Z" transform="translate(-84.33 -84.33)"/></g><g id="at"><path class="cls-2" d="M138.68,152.56a32.58,32.58,0,0,1-15.92,3.57c-14.67,0-27.11-10.73-27.11-27.91,0-18.43,12.79-34.35,32.66-34.35,15.57,0,26,10.91,26,25.85,0,13.42-7.52,21.29-15.93,21.29-3.58,0-6.89-2.41-6.62-7.87h-.36c-3.13,5.28-7.24,7.87-12.61,7.87-5.19,0-9.66-4.2-9.66-11.27a21.12,21.12,0,0,1,21.2-21.2,23.51,23.51,0,0,1,9.57,1.88l-3,16.19c-1.34,6.8-.27,9.93,2.68,10,4.57.09,9.67-6,9.67-16.37,0-13-7.79-22.28-21.66-22.28-14.58,0-26.84,11.54-26.84,29.71,0,14.94,9.76,24.15,23,24.15a27.93,27.93,0,0,0,13.52-3.13Zm-4.91-38.65a15.45,15.45,0,0,0-4.48-.63c-7.87,0-14.22,7.43-14.22,16.1,0,3.94,2,6.8,5.91,6.8,5.18,0,9.92-6.62,10.91-12.16Z" transform="translate(-84.33 -84.33)"/></g><g id="square"><rect class="cls-2" width="81.35" height="81.35"/></g><g id="dia"><rect class="cls-2" y="34.63" width="81.35" height="12.09"/></g><g id="hori"><rect class="cls-2" x="84.33" y="118.96" width="81.35" height="12.09" transform="translate(-84.33 165.67) rotate(-90)"/></g><g id="dot"><path class="cls-2" d="M113.47,125c0-7.16,4.85-12.19,11.63-12.19s11.43,5,11.43,12.19c0,7-4.46,12.21-11.63,12.21C118.13,137.2,113.47,132,113.47,125Z" transform="translate(-84.33 -84.33)"/></g><g id="mark"><path class="cls-2" d="M119,153.87c0-3.71,2.55-6.39,6-6.39,3.66,0,6,2.68,6,6.39s-2.35,6.37-6,6.37S119,157.47,119,153.87Zm2.55-14.72-1.43-49.39h9.78l-1.43,49.39Z" transform="translate(-84.33 -84.33)"/></g></svg>