<svg version="1.1" id="svg86829" width="1489.4545" height="1489.4545" viewBox="0 0 1489.4545 1489.4545" xmlns="http://www.w3.org/2000/svg" xmlns:svg="http://www.w3.org/2000/svg">
  <g id="g86835">
    <path
       style="fill:#000000;stroke-width:0.727273"
       d="m 735.93675,1289.7702 c -11.34876,-1.0966 -19.77253,-5.7393 -26.39266,-14.5461 -9.28309,-12.3492 -13.46486,-26.185 -15.00392,-49.6419 -1.31392,-20.0257 0.0537,-36.0906 6.23074,-73.1906 5.27811,-31.7009 8.88038,-58.2983 15.21825,-112.3637 5.47681,-46.72003 13.18774,-145.34308 17.14403,-219.27268 1.34495,-25.13352 1.71389,-69.45439 0.75971,-91.26681 -0.48982,-11.19675 -1.13731,-20.52403 -1.43891,-20.72727 -0.30167,-0.20325 -0.56924,-3.47864 -0.59462,-7.27864 -0.0884,-13.22471 -5.31851,-48.30654 -9.27028,-62.18182 -3.91043,-13.73012 -7.46191,-19.05402 -30.56457,-45.81818 -8.28666,-9.6 -17.05642,-20.07272 -19.48835,-23.27272 -2.43194,-3.2 -4.61884,-5.98182 -4.85978,-6.18182 -0.79147,-0.657 -8.51046,-13.31996 -12.22943,-20.06231 -5.91192,-10.71811 -9.89918,-19.01432 -13.60195,-28.30133 -14.76733,-37.03832 -18.35437,-62.35744 -14.83702,-104.72727 3.80268,-45.80676 18.23656,-85.66453 43.21227,-119.32652 18.66906,-25.16194 34.96462,-38.76448 55.67333,-46.47272 13.54251,-5.0408 24.18731,-5.0408 37.72978,0 20.70873,7.70824 37.00429,21.31078 55.67338,46.47272 17.21273,23.19912 29.82669,50.38937 37.04458,79.85212 7.30778,29.82956 9.49171,71.70546 5.09295,97.65622 -3.98451,23.50686 -13.69266,50.06072 -27.36422,74.84678 -3.68625,6.68296 -11.09331,18.78392 -12.72553,20.78958 -0.48821,0.6 -2.81061,3.54546 -5.16087,6.54546 -2.35018,2.99999 -10.90793,13.14545 -19.01723,22.54545 -22.74917,26.37006 -26.34073,31.76889 -30.23855,45.45454 -3.95171,13.87528 -9.18189,48.95711 -9.27025,62.18182 -0.0255,3.8 -0.29295,7.07539 -0.59462,7.27864 -0.3016,0.20324 -0.94909,9.53052 -1.43891,20.72727 -0.95418,21.81242 -0.58524,66.13329 0.75971,91.26681 3.95629,73.9296 11.6672,172.55265 17.144,219.27268 6.33789,54.0654 9.94014,80.6628 15.21825,112.3637 4.40473,26.455 5.27949,33.2524 6.20997,48.2541 1.29643,20.9011 -0.68844,42.6656 -5.07637,55.6653 -5.2104,15.4361 -14.93498,27.2076 -25.85062,31.2916 -3.36654,1.2596 -17.24829,3.1832 -20.72509,2.8719 -0.6,-0.054 -3.91527,-0.3707 -7.3672,-0.7043 z m 22.61244,-5.7335 c 13.17462,-4.2088 21.04705,-13.0129 26.67033,-29.827 3.88749,-11.6237 4.9616,-20.4336 4.96545,-40.7272 0.007,-20.4795 -0.30604,-23.4805 -6.16022,-59.6364 -2.364,-14.6 -4.5992,-28.5091 -4.96712,-30.9091 l -0.66895,-4.3636 -0.0806,6.9091 c -0.21077,18.0636 2.23265,36.9976 6.96523,53.9738 2.96029,10.6189 3.03346,11.8902 2.29098,39.8443 -0.31214,11.7534 -0.36792,12.1046 -2.71527,17.091 -1.87483,3.9827 -2.52574,6.5451 -2.99003,11.7717 -0.32648,3.6744 -0.85222,7.1108 -1.16844,7.6363 -0.45476,0.756 -0.32182,0.7504 0.63644,-0.027 0.66618,-0.5401 1.42065,-2.0983 1.67658,-3.4625 0.56989,-3.0377 1.75498,-3.9784 1.75498,-1.393 0,4.719 -3.59462,9.1358 -7.62451,9.3685 -1.52313,0.088 -1.82953,0.4704 -1.83222,2.2874 0,1.2 -0.67614,3.2855 -1.49854,4.6345 -1.49491,2.4521 -1.49622,2.4525 -5.80131,1.9654 l -4.30611,-0.4871 -0.48837,3.0542 c -0.5408,3.3819 -2.42654,5.7421 -4.58785,5.7421 -2.27789,0 -2.41644,-1.2833 -0.25054,-2.3214 1.40043,-0.6712 2.15592,-1.7238 2.51279,-3.501 1.06859,-5.3217 1.05295,-5.4376 -0.76836,-5.6954 -2.04618,-0.2898 -2.60276,0.4524 -4.06225,5.4168 -1.2016,4.0872 -6.04866,9.3061 -9.43157,10.1552 -2.90131,0.7282 -5.30887,-0.214 -8.82225,-3.4526 -2.34415,-2.1607 -3.54066,-4.0122 -4.33164,-6.7026 -1.45949,-4.9644 -2.01607,-5.7066 -4.06225,-5.4168 -1.82131,0.2578 -1.83695,0.3737 -0.76836,5.6954 0.35687,1.7772 1.11236,2.8298 2.51279,3.501 2.1659,1.0381 2.02735,2.3214 -0.25054,2.3214 -2.16131,0 -4.04705,-2.3602 -4.58783,-5.7421 l -0.4884,-3.0542 -4.30608,0.4871 c -4.30512,0.4871 -4.3064,0.4867 -5.80134,-1.9654 -0.8224,-1.349 -1.49673,-3.4345 -1.49851,-4.6345 -0.003,-1.817 -0.30912,-2.1995 -1.83221,-2.2874 -4.02994,-0.2324 -7.62454,-4.6492 -7.62454,-9.3683 0,-2.5853 1.18511,-1.6446 1.75498,1.3931 0.25593,1.3642 1.0104,2.9224 1.6766,3.4625 0.9582,0.777 1.09116,0.7826 0.63638,0.027 -0.31618,-0.5255 -0.84196,-3.9619 -1.1684,-7.6363 -0.46432,-5.2266 -1.11519,-7.789 -2.99007,-11.7718 -2.34729,-4.9863 -2.40309,-5.3375 -2.71525,-17.0909 -0.74242,-27.9541 -0.66932,-29.2254 2.29102,-39.8443 4.73258,-16.9762 7.17597,-35.9102 6.96519,-53.9738 l -0.0806,-6.9091 -0.66898,4.3636 c -0.36794,2.4 -2.60313,16.3091 -4.96708,30.9091 -5.85418,36.1559 -6.16418,39.1569 -6.16025,59.6364 0.003,13.8172 0.30109,19.6145 1.32908,25.8181 3.21262,19.3872 11.39866,35.0286 21.39979,40.8897 6.85099,4.015 12.01877,5.2276 22.42103,5.2612 7.58218,0.025 10.47098,-0.2659 14.06727,-1.4148 z m -7.96524,-7.8449 c 1.64342,-1.6434 3.11819,-4.0516 3.6744,-6 0.51099,-1.7901 1.5851,-3.9912 2.38684,-4.8912 1.8048,-2.0258 5.12284,-2.154 6.45687,-0.2493 0.70444,1.0057 2.05324,1.4556 4.90582,1.6364 l 3.93426,0.2493 1.03265,-2.6756 c 0.91178,-2.3624 0.89571,-2.9503 -0.13724,-5.0208 -1.58,-3.1672 -1.47251,-5.9861 0.28902,-7.5803 1.872,-1.6941 2.66095,-0.9085 1.54575,1.539 -1.02349,2.2464 -0.52902,4.3249 1.1856,4.9828 1.51563,0.5817 2.84327,-1.1106 3.87382,-4.9378 0.66974,-2.4872 0.58938,-2.9493 -0.66582,-3.8285 -0.78517,-0.5498 -2.484,-2.8872 -3.77535,-5.1938 -1.29127,-2.3067 -2.4456,-4.305 -2.56516,-4.4406 -0.11957,-0.1355 -1.46429,0.6008 -2.98829,1.6364 -2.57622,1.7506 -5.34226,2.4874 -5.34226,1.423 0,-0.253 2.12728,-2.4652 4.72728,-4.9162 2.6,-2.4509 4.72727,-4.9501 4.72727,-5.5535 0,-0.6035 -0.86749,-1.6235 -1.92771,-2.2669 -1.92466,-1.1678 -1.93171,-1.1637 -4.4192,2.5588 -1.37026,2.0507 -3.49055,4.5217 -4.71178,5.4912 l -2.22029,1.7627 0.48727,5.8427 c 0.268,3.2135 0.66807,6.0202 0.88909,6.2373 0.22095,0.2171 1.43491,-0.8326 2.69767,-2.3326 2.59171,-3.0788 3.38677,-3.3781 3.38677,-1.2749 0,2.1032 -4.57309,6.8438 -9.02662,9.3572 -2.11549,1.1939 -5.28626,3.8512 -7.04618,5.9052 -1.76,2.0539 -4.09993,4.7788 -5.19993,6.0552 l -2,2.3209 -2,-2.3209 c -1.1,-1.2764 -3.43993,-4.0013 -5.19993,-6.0552 -1.75992,-2.054 -4.93069,-4.7113 -7.04618,-5.9052 -4.45355,-2.5134 -9.02662,-7.254 -9.02662,-9.3572 0,-2.1032 0.79509,-1.8039 3.38679,1.2749 1.26273,1.5 2.4767,2.5497 2.69765,2.3326 0.22102,-0.2171 0.62109,-3.0238 0.88909,-6.2373 l 0.48727,-5.8427 -2.22032,-1.7627 c -1.22117,-0.9695 -3.34147,-3.4405 -4.71176,-5.4912 -2.4875,-3.7225 -2.49453,-3.7266 -4.41918,-2.5588 -1.06024,0.6434 -1.92772,1.6634 -1.92772,2.2669 0,0.6034 2.12727,3.1026 4.72727,5.5535 2.6,2.451 4.72728,4.6632 4.72728,4.9162 0,1.0644 -2.76604,0.3276 -5.34229,-1.423 -1.52395,-1.0356 -2.86867,-1.7719 -2.98824,-1.6364 -0.11957,0.1356 -1.27392,2.1339 -2.56521,4.4406 -1.2913,2.3066 -2.99018,4.644 -3.7753,5.1938 -1.25519,0.8792 -1.33556,1.3413 -0.66583,3.8285 1.03055,3.8272 2.35818,5.5195 3.87382,4.9378 1.71458,-0.6579 2.20911,-2.7364 1.18558,-4.9828 -1.11519,-2.4475 -0.32621,-3.2331 1.54574,-1.539 1.76157,1.5942 1.86906,4.4131 0.28906,7.5803 -1.03294,2.0705 -1.04901,2.6584 -0.13727,5.0208 l 1.03269,2.6756 3.93426,-0.2493 c 2.85258,-0.1808 4.20137,-0.6307 4.90577,-1.6364 1.33405,-1.9047 4.65209,-1.7765 6.45689,0.2493 0.80174,0.9 1.87585,3.1011 2.38684,4.8912 0.55621,1.9484 2.03098,4.3566 3.6744,6 2.3112,2.3112 3.23221,2.7452 5.82545,2.7452 2.59324,0 3.51425,-0.434 5.82545,-2.7452 z m -4.05047,-10.7236 c 1.75709,-3.2627 5.56553,-7.1876 9.20167,-9.483 2.65433,-1.6755 2.84102,-2.0207 2.83353,-5.2391 -0.007,-1.895 -0.2024,-4.6208 -0.44007,-6.0572 -0.3832,-2.3167 -0.63782,-2.5725 -2.25287,-2.2638 -1.63579,0.3127 -1.7408,0.1986 -1.03375,-1.1225 0.4328,-0.8088 2.40058,-2.8215 4.37273,-4.4727 4.29607,-3.5968 7.74778,-8.7529 8.6984,-12.9934 0.6256,-2.7906 0.47069,-3.5148 -1.55011,-7.2457 -1.85004,-3.4158 -2.29993,-5.1891 -2.55644,-10.0761 -0.37091,-7.0666 0.95789,-9.2155 1.65622,-2.6784 0.78269,7.3266 1.06705,8.4565 3.33491,13.249 1.22596,2.5908 2.12771,5.5846 2.01258,6.682 -0.19534,1.8619 2.39426,5.7152 3.84087,5.7152 1.03113,0 1.5048,-7.6458 0.79222,-12.7881 -0.65854,-4.7519 -0.0747,-15.9786 1.00837,-19.3911 1.14225,-3.599 1.7613,-0.311 1.7613,9.3549 0,10.4527 0.0255,10.6236 1.53259,10.2295 0.84291,-0.2204 2.276,-0.1182 3.18451,0.2273 1.59083,0.6048 1.62894,0.529 1.03025,-2.0477 -0.86095,-3.7051 -0.82182,-7.5911 0.0706,-7.0394 0.4,0.2472 0.7568,1.1666 0.79287,2.0429 0.0458,1.1173 0.28742,0.8327 0.80778,-0.952 1.39491,-4.7839 0.23171,-18.4174 -2.32684,-27.2727 -5.58749,-19.339 -5.86647,-21.4282 -8.01221,-60 -0.45673,-8.2111 -1.44779,-17.1392 -2.54284,-22.9091 -0.98698,-5.2 -1.77127,-10.2727 -1.74298,-11.2727 0.0502,-1.7738 0.0752,-1.765 1.02436,0.3636 0.82989,1.8611 1.04822,1.9902 1.48509,0.8783 1.32902,-3.3824 -3.45171,-21.9807 -6.45636,-25.1169 -3.68698,-3.8484 -4.40233,-7.2826 -4.4192,-21.2159 -0.016,-13.2636 0.65425,-21.0909 1.80633,-21.0909 0.3712,0 0.69563,1.0636 0.72101,2.3636 0.0451,2.317 0.0604,2.3277 0.7816,0.5455 0.94022,-2.3241 0.2688,-6.6069 -1.6144,-10.2984 -1.71309,-3.3579 -2.74247,-10.0653 -1.54472,-10.0653 0.42916,0 0.91658,0.9 1.0832,2 0.2416,1.5947 0.32509,1.4426 0.412,-0.7501 0.0596,-1.5127 -0.57688,-4.7854 -1.41506,-7.27276 -1.37767,-4.08837 -1.53476,-6.3379 -1.63636,-23.43164 -0.10735,-18.0704 -0.18335,-19.02916 -1.71222,-21.616 -0.87985,-1.4888 -1.31694,-2.88174 -0.9712,-3.09549 0.34575,-0.21367 0.7944,0.0226 0.99695,0.52516 0.20261,0.50248 0.39418,-0.43723 0.42581,-2.08829 0.0364,-1.88611 -0.36283,-3.35054 -1.07323,-3.94014 -3.86466,-3.20735 -4.52015,-11.56742 -1.73673,-22.14887 0.58466,-2.2227 0.29978,-9.00088 -1.2072,-28.72728 -1.0848,-14.2 -1.97229,-26.63636 -1.97214,-27.63636 3.6e-4,-2.08414 -1.02197,-19.53287 -1.6192,-27.63636 -0.22117,-3 -0.7619,-6.76364 -1.20168,-8.36364 -0.43985,-1.6 -0.83367,-5.58189 -0.87512,-8.84858 -0.0415,-3.26676 -0.31957,-6.18356 -0.6179,-6.48182 -0.29825,-0.29825 -1.36189,-0.1688 -2.36363,0.28757 -2.20167,1.00312 -2.47615,-0.19186 -0.31026,-1.35099 0.96153,-0.51461 1.34924,-1.23003 1.06626,-1.96741 -0.24458,-0.63739 -0.11629,-1.36182 0.28509,-1.60989 0.43236,-0.2672 0.50284,-1.29986 0.17287,-2.53368 -0.50618,-1.89272 -0.84923,-2.08262 -3.76247,-2.08262 -2.91324,0 -3.25629,0.1899 -3.76247,2.08262 -0.32997,1.23382 -0.25949,2.26648 0.17287,2.53368 0.40138,0.24807 0.52967,0.9725 0.28509,1.60989 -0.28298,0.73738 0.10473,1.4528 1.06625,1.96741 2.1659,1.15913 1.89142,2.35411 -0.31025,1.35099 -1.00175,-0.45637 -2.06538,-0.58582 -2.36364,-0.28757 -0.29832,0.29826 -0.57636,3.21506 -0.61789,6.48182 -0.0414,3.26669 -0.43527,7.24858 -0.87512,8.84858 -0.43979,1.6 -0.98051,5.36364 -1.20168,8.36364 -0.59723,8.10349 -1.61956,25.55222 -1.6192,27.63636 1.5e-4,1 -0.88734,13.43636 -1.97214,27.63636 -1.50698,19.7264 -1.79186,26.50458 -1.2072,28.72728 2.78342,10.58145 2.12792,18.94152 -1.73673,22.14887 -0.7104,0.5896 -1.10931,2.05403 -1.07324,3.94014 0.0313,1.65106 0.2232,2.59077 0.42582,2.08829 0.20255,-0.50254 0.6512,-0.73883 0.99695,-0.52516 0.34574,0.21375 -0.0914,1.60669 -0.9712,3.09549 -1.52887,2.58684 -1.60487,3.5456 -1.71222,21.616 -0.1016,17.09374 -0.25869,19.34327 -1.63637,23.43164 -0.8382,2.48736 -1.47496,5.76006 -1.41503,7.27276 0.0869,2.1927 0.17039,2.3448 0.41195,0.7501 0.16664,-1.1 0.6541,-2 1.08324,-2 1.19774,0 0.16838,6.7074 -1.54473,10.0653 -1.88321,3.6915 -2.55462,7.9743 -1.61443,10.2984 0.72101,1.7822 0.73645,1.7715 0.78163,-0.5455 0.0254,-1.3 0.34983,-2.3636 0.72104,-2.3636 1.15202,0 1.82239,7.8273 1.80632,21.0909 -0.0169,13.9333 -0.73222,17.3675 -4.41921,21.2159 -3.00466,3.1362 -7.78541,21.7345 -6.45639,25.1169 0.43688,1.1119 0.65519,0.9828 1.4851,-0.8783 0.94919,-2.1286 0.97418,-2.1374 1.02439,-0.3636 0.0283,1 -0.75603,6.0727 -1.74297,11.2727 -1.09511,5.7699 -2.08613,14.698 -2.5429,22.9091 -2.14568,38.5718 -2.42468,40.661 -8.01222,60 -2.55852,8.8553 -3.72167,22.4888 -2.32679,27.2727 0.52036,1.7847 0.76179,2.0693 0.80778,0.952 0.0361,-0.8763 0.39286,-1.7957 0.79286,-2.0429 0.89263,-0.5517 0.93175,3.3343 0.0708,7.0394 -0.59871,2.5767 -0.56059,2.6525 1.0302,2.0477 0.90856,-0.3455 2.34159,-0.4477 3.18452,-0.2273 1.50699,0.3941 1.5326,0.2232 1.5326,-10.2295 0,-9.6659 0.61904,-12.9539 1.7613,-9.3549 1.08308,3.4125 1.66691,14.6392 1.0084,19.3911 -0.71261,5.1423 -0.23896,12.7881 0.79222,12.7881 1.44661,0 4.03615,-3.8533 3.84085,-5.7152 -0.11512,-1.0974 0.7866,-4.0912 2.01256,-6.682 2.26786,-4.7925 2.55226,-5.9224 3.33492,-13.249 0.69832,-6.5371 2.02712,-4.3882 1.65622,2.6784 -0.2565,4.887 -0.70643,6.6603 -2.55646,10.0761 -2.02074,3.7309 -2.17569,4.4551 -1.55009,7.2457 0.95064,4.2405 4.40236,9.3966 8.6984,12.9934 1.97215,1.6512 3.93993,3.6639 4.37273,4.4727 0.70705,1.3211 0.60204,1.4352 -1.03375,1.1225 -1.61505,-0.3087 -1.86967,-0.053 -2.25287,2.2638 -0.23767,1.4364 -0.43564,4.1622 -0.44007,6.0572 -0.007,3.2184 0.1792,3.5636 2.83353,5.2391 3.63614,2.2954 7.44458,6.2203 9.20167,9.483 0.75818,1.4079 1.55687,2.5597 1.77498,2.5597 0.21811,0 1.0168,-1.1518 1.77498,-2.5597 z m -4.68407,-12.5339 c -1.88153,-0.6283 -4.36364,-3.2844 -4.36364,-4.6695 0,-1.8244 1.0528,-1.6634 3.20662,0.4904 1.15506,1.155 2.63804,1.8182 4.06611,1.8182 1.42807,0 2.91105,-0.6632 4.06611,-1.8182 2.15382,-2.1538 3.20662,-2.3148 3.20662,-0.4904 0,3.1132 -6.25368,5.9813 -10.18182,4.6695 z m -2.97731,-14.7246 c -1.93782,-2 -3.86073,-3.6363 -4.27302,-3.6363 -0.41229,0 -0.74967,-0.4909 -0.74967,-1.0909 0,-2.085 2.98465,-1.0786 6.47018,2.1818 1.92436,1.8 3.92189,3.2727 4.43891,3.2727 0.51702,0 2.51455,-1.4727 4.43891,-3.2727 3.48553,-3.2604 6.47018,-4.2668 6.47018,-2.1818 0,0.6 -0.33738,1.0909 -0.74967,1.0909 -0.41229,0 -2.3352,1.6363 -4.27302,3.6363 -2.80465,2.8946 -4.00545,3.6364 -5.8864,3.6364 -1.88095,0 -3.08175,-0.7418 -5.8864,-3.6364 z m -24.23913,0.5406 c 0.23479,-0.7344 -0.59568,-3.0327 -1.95302,-5.4051 -2.06525,-3.6097 -2.35011,-4.7416 -2.27073,-9.023 0.0975,-5.2589 -0.74918,-6.4771 -3.48429,-5.0133 -4.45799,2.3859 -4.86652,8.7065 -1.0742,16.6197 1.40073,2.9229 2.75149,6.5944 3.00169,8.1591 l 0.45491,2.8449 2.45858,-3.4524 c 1.35222,-1.8988 2.64239,-4.0272 2.86706,-4.7299 z m 69.29418,-3.4497 c 3.52102,-7.2852 2.98735,-13.6784 -1.33505,-15.9917 -2.73513,-1.4638 -3.58182,-0.2456 -3.48429,5.0133 0.0795,4.2883 -0.20429,5.4112 -2.28822,9.0534 -2.62902,4.5951 -2.59687,4.9571 0.88975,10.0318 l 2.32189,3.3795 0.8056,-3.3795 c 0.44305,-1.8587 1.83367,-5.5068 3.09032,-8.1068 z m -72.14154,-120.1818 c -0.20175,-0.5 -0.36683,-0.091 -0.36683,0.9091 0,1 0.16508,1.4091 0.36683,0.9091 0.20176,-0.5 0.20176,-1.3182 0,-1.8182 z m 66.18183,0 c -0.20174,-0.5 -0.36683,-0.091 -0.36683,0.9091 0,1 0.16509,1.4091 0.36683,0.9091 0.20175,-0.5 0.20175,-1.3182 0,-1.8182 z m -64.71213,-11.5909 c -0.23216,-0.5801 -0.4045,-0.4078 -0.43939,0.4394 -0.0316,0.7667 0.14031,1.1963 0.38198,0.9546 0.24166,-0.2417 0.2675,-0.869 0.0574,-1.394 z m 63.27272,0 c -0.23215,-0.5801 -0.40451,-0.4078 -0.43942,0.4394 -0.0313,0.7667 0.14036,1.1963 0.38203,0.9546 0.24168,-0.2417 0.2675,-0.869 0.0575,-1.394 z m -61.75124,-7.8636 -0.0185,-3.2727 -0.58234,3.2727 c -0.32028,1.8 -0.57397,4.0909 -0.56375,5.0909 l 0.0186,1.8182 0.58227,-1.8182 c 0.32025,-1 0.57394,-3.2909 0.56374,-5.0909 z m 60.6316,0.7217 c -0.55818,-3.3699 -0.67498,-3.5822 -0.74669,-1.3581 -0.0977,3.0281 0.82502,8.0925 1.17484,6.449 0.12843,-0.6031 -0.064,-2.894 -0.42815,-5.0909 z m -57.06217,-33.5853 c -0.23216,-0.5802 -0.4045,-0.4079 -0.43939,0.4394 -0.0316,0.7666 0.14031,1.1962 0.38198,0.9545 0.24166,-0.2417 0.26749,-0.8689 0.0574,-1.3939 z m 53.0909,0 c -0.23215,-0.5802 -0.40451,-0.4079 -0.43942,0.4394 -0.0313,0.7666 0.14036,1.1962 0.38204,0.9545 0.24167,-0.2417 0.26749,-0.8689 0.0575,-1.3939 z m -49.81332,-7.8637 c 0.49261,0 0.64216,1.1407 0.4052,3.0909 l -0.37557,3.0909 1.04045,-2.4403 c 1.76584,-4.1416 2.42826,-9.374 2.42826,-19.1806 0,-8.3211 -0.17,-9.6385 -1.45455,-11.2715 -1.26547,-1.6088 -1.45454,-1.6695 -1.45454,-0.4668 0,0.7603 -0.81819,8.2121 -1.81819,16.5597 -2.04048,17.0331 -2.12696,19.0303 -0.60928,14.0723 0.5816,-1.9 1.4088,-3.4546 1.83822,-3.4546 z m 47.53521,-10.306 c -1.02029,-8.5466 -1.85506,-16.1501 -1.85506,-16.8965 0,-1.1609 -0.21047,-1.0897 -1.45454,0.4919 -1.28458,1.633 -1.45455,2.9504 -1.45455,11.2715 0,9.8066 0.6624,15.039 2.42829,19.1806 l 1.04044,2.4403 -0.37556,-3.0909 c -0.52051,-4.2836 1.01214,-4.0336 2.11469,0.345 1.57236,6.2445 1.43527,1.9973 -0.44371,-13.7419 z m -44.09913,-34.7849 c -0.0263,-0.7193 -0.25288,-0.5954 -0.66502,0.3637 -0.85914,1.9993 -0.85914,3.1476 0,1.8181 0.38776,-0.6 0.68702,-1.5818 0.66502,-2.1818 z m 40.124,0.6511 c -0.38327,-0.9581 -0.7176,-1.3597 -0.74291,-0.8924 -0.0618,1.135 0.7856,3.2884 1.15026,2.9237 0.1592,-0.1592 -0.024,-1.0733 -0.40735,-2.0313 z M 726.37129,988.947 c -0.16717,-1.10545 -0.30841,-0.3736 -0.31387,1.6264 -0.006,2 0.13131,2.90451 0.30394,2.00996 0.17262,-0.89447 0.1771,-2.53083 0.01,-3.63636 z m 37.09092,0 c -0.1672,-1.10545 -0.30844,-0.3736 -0.31389,1.6264 -0.007,2 0.13134,2.90451 0.30392,2.00996 0.17266,-0.89447 0.1771,-2.53083 0.0102,-3.63636 z m -31.0288,-50.51687 c 0.79716,-2.96022 0.41505,-9.58684 -0.78124,-13.54931 -0.4192,-1.38844 -0.60647,-0.28145 -0.65563,3.8744 -0.0378,3.2 -0.28131,7.58764 -0.54095,9.75025 -0.56313,4.69019 0.70764,4.64182 1.97782,-0.0753 z m 26.31942,-6.03855 c -0.31775,-7.17338 -0.57506,-8.92814 -1.0664,-7.27272 -1.07048,3.60669 -1.04466,13.61338 0.04,15.5168 0.53243,0.93432 1.07534,1.58887 1.20654,1.45454 0.1312,-0.13425 0.0502,-4.49862 -0.18022,-9.69862 z M 739.33799,810.62846 c -0.22465,-0.36342 -0.0465,-2.34764 0.39556,-4.40931 0.47324,-2.20676 0.56502,-4.84924 0.22313,-6.42444 -0.55818,-2.57141 -0.60014,-2.49141 -1.07723,2.05142 -0.80597,7.67564 -0.75404,12.22647 0.12232,10.72153 0.40953,-0.7032 0.5608,-1.57586 0.33622,-1.9392 z m 11.57644,-5.64175 c -0.41644,-6.10945 -0.688,-7.45905 -1.21709,-6.04792 -0.39062,1.04174 -0.43404,3.52247 -0.10182,5.81643 0.31854,2.2 0.62334,4.65455 0.67723,5.45455 0.20473,3.03803 0.31651,3.50254 0.7408,3.07825 0.2403,-0.24029 0.19571,-3.97585 -0.0991,-8.30131 z m -3.91462,-1.68603 c 0.36727,0 0.67498,-0.9 0.68378,-2 0.009,-1.1 0.66327,-3.42662 1.45455,-5.17033 1.82414,-4.02022 1.81141,-7.14473 -0.0611,-15.02996 -1.46546,-6.17033 -1.45193,-8.83971 0.0269,-5.35986 0.89557,2.10706 0.54626,-9.54203 -0.37098,-12.37178 -0.40516,-1.24996 -0.32676,-1.60138 0.27455,-1.22982 0.60218,0.37222 0.84182,-0.73396 0.84182,-3.88625 0,-2.824 -0.29899,-4.40655 -0.83244,-4.40655 -0.60356,0 -0.66349,-1.34989 -0.21804,-4.90909 0.91535,-7.31358 0.69259,-14.04951 -0.4888,-14.77963 -1.2648,-0.78168 -1.80538,-10.98135 -0.77905,-14.69838 0.59956,-2.17161 0.48044,-3.14823 -0.65636,-5.37787 -0.76393,-1.49842 -1.38895,-3.30974 -1.38895,-4.02516 0,-0.71543 -0.32727,-1.30077 -0.72727,-1.30077 -0.4,0 -0.72728,0.58534 -0.72728,1.30077 0,0.71542 -0.62501,2.52674 -1.38894,4.02516 -1.1368,2.22964 -1.25593,3.20626 -0.65636,5.37787 1.02632,3.71703 0.48574,13.9167 -0.77906,14.69838 -1.18138,0.73012 -1.40414,7.46605 -0.4888,14.77963 0.44546,3.5592 0.38553,4.90909 -0.21804,4.90909 -0.53345,0 -0.83243,1.58255 -0.83243,4.40655 0,3.15229 0.23963,4.25847 0.84182,3.88625 0.60131,-0.37156 0.67971,-0.0204 0.27454,1.22982 -0.91723,2.82975 -1.26654,14.47884 -0.37098,12.37178 1.47913,-3.47985 1.49265,-0.81047 0.0269,5.35986 -1.87273,7.88523 -1.88546,11.00974 -0.0611,15.02996 0.79127,1.74371 1.44582,4.04633 1.45454,5.11702 0.016,1.94567 1.48524,2.91571 3.53004,2.33047 0.53273,-0.15243 1.26909,-0.27716 1.63636,-0.27716 z m -6.09738,-79.27273 c -0.19288,-2.6 -0.8856,-5.87272 -1.53942,-7.27272 l -1.18873,-2.54546 0.37535,5.45455 c 0.2064,3 0.58414,7.09091 0.83942,9.09091 0.4208,3.29714 0.52938,3.46675 1.16414,1.81818 0.38502,-1 0.54218,-3.94546 0.34924,-6.54546 z m 10.08232,-4.36363 0.35797,-5.45455 -1.16778,2.54546 c -1.49273,3.25394 -2.13622,9.24469 -1.37877,12.83753 l 0.59004,2.79883 0.62029,-3.63636 c 0.34116,-2 0.78138,-6.09091 0.97825,-9.09091 z m -9.16763,-9.45455 c 0.49149,-1.4 1.06989,-6.16396 1.28545,-10.58659 0.34895,-7.16048 0.18771,-8.75349 -1.472,-14.54546 -1.02509,-3.57737 -2.08472,-7.60855 -2.35462,-8.95817 l -0.49083,-2.45387 -2.28604,2.28907 -2.28603,2.28907 1.36145,2.34661 c 1.53149,2.63975 5.54131,12.17525 5.54516,13.18661 0,0.36199 -0.60749,0.10619 -1.35294,-0.56845 -1.30226,-1.17851 -1.38655,-1.0617 -2.14967,2.97819 -0.88124,4.66523 -0.1835,13.38943 1.29127,16.14507 1.02596,1.91697 1.65113,1.4609 2.9088,-2.12208 z m 8.83331,2.044 c 1.43818,-2.68723 2.12022,-11.45755 1.24952,-16.06699 -0.76312,-4.03989 -0.84741,-4.1567 -2.14967,-2.97819 -0.74545,0.67464 -1.35433,0.93044 -1.35294,0.56845 0.007,-1.01136 4.01367,-10.54686 5.54516,-13.18661 l 1.36145,-2.34661 -2.28436,-2.28741 -2.28436,-2.28742 -0.83571,3.90675 c -0.45964,2.14872 -1.47717,5.98669 -2.26109,8.52883 -2.14997,6.97167 -1.82546,19.14542 0.68618,25.74157 0.91985,2.41577 1.22269,2.46885 2.32582,0.40763 z M 736.4353,686.533 c -0.27382,-1.45952 -0.66153,-2.49004 -0.86153,-2.29004 -0.2,0.2 -0.13956,1.55779 0.13426,3.01731 0.27374,1.45953 0.66145,2.49006 0.86145,2.29006 0.2,-0.2 0.13957,-1.5578 -0.13418,-3.01733 z m 17.65411,-1.41414 0.0211,-1.45454 -0.62502,1.45454 c -0.34378,0.8 -0.61542,2.27273 -0.60363,3.27273 l 0.0211,1.81818 0.58283,-1.81818 c 0.32029,-1 0.59193,-2.47273 0.60364,-3.27273 z m -7.53229,-2.36363 c 2.56778,-8.03156 2.71694,-11.35742 0.3832,-8.54546 -0.49797,0.6 -1.47978,1.09091 -2.18182,1.09091 -0.70204,0 -1.68385,-0.49091 -2.18182,-1.09091 -1.50298,-1.81101 -2.01498,-1.24117 -1.47011,1.63637 0.73797,3.89785 3.10648,11.09091 3.65193,11.09091 0.25389,0 1.06327,-1.88182 1.79862,-4.18182 z m -9.49622,-10.55717 c 1.15687,-1.97405 2.21433,-5.55141 2.90713,-9.8348 0.59883,-3.70272 1.29142,-7.05998 1.53898,-7.46059 0.24764,-0.40061 0.228,-1.73983 -0.0436,-2.97605 l -0.49367,-2.24765 -1.79375,3.17449 c -0.98661,1.74597 -2.62101,4.04431 -3.63207,5.10742 l -1.83825,1.93292 1.87076,2.75301 c 2.08924,3.07461 1.95593,4.12517 -0.26814,2.11245 -1.41448,-1.28008 -1.45899,-1.2758 -1.45899,0.1402 0,2.28419 0.90829,10.40122 1.16386,10.40122 0.12618,0 1.04756,-1.39617 2.04763,-3.10262 z m 18.54298,-6.28283 c 0.0625,-2.43376 0.0385,-2.45365 -1.39527,-1.15597 -2.22407,2.01272 -2.35738,0.96216 -0.26815,-2.11245 l 1.87077,-2.75301 -1.83826,-1.93292 c -1.01105,-1.06311 -2.64545,-3.36145 -3.63207,-5.10742 l -1.79375,-3.17449 -0.49367,2.24765 c -0.27149,1.23622 -0.29113,2.57544 -0.0436,2.97605 0.24756,0.40061 0.94014,3.75787 1.53898,7.46059 0.73389,4.53723 1.72727,7.80304 3.04698,10.01662 l 1.95804,3.28444 0.49309,-3.63637 c 0.2712,-2 0.52174,-4.75072 0.5568,-6.11272 z m -8.55956,5.9356 c 1.66756,-0.98504 2.05462,-1.63437 1.73462,-2.90959 -0.22662,-0.90286 -0.60233,-3.03225 -0.83499,-4.73197 -0.40967,-2.99385 -0.50581,-3.09041 -3.07694,-3.09041 h -2.65396 l -0.88924,4.68651 c -0.48909,2.57757 -0.81636,4.73155 -0.72727,4.78661 0.0891,0.0551 0.97112,0.64613 1.96014,1.31349 2.19127,1.47862 1.88575,1.48234 4.48764,-0.0546 z m -0.80553,-16.73197 c 0.0145,-2.3 0.49353,-5 1.06516,-6 0.59884,-1.04751 1.04917,-3.82191 1.0624,-6.54545 l 0.0233,-4.72727 -1.44109,2.36363 c -0.79266,1.3 -1.77804,2.36364 -2.18982,2.36364 -0.41178,0 -1.39717,-1.06364 -2.18982,-2.36364 l -1.44109,-2.36363 0.0233,4.72727 c 0.0131,2.72354 0.46357,5.49794 1.0624,6.54545 0.57164,1 1.05098,3.7 1.06517,6 0.0225,3.68838 0.19738,4.18182 1.48029,4.18182 1.28291,0 1.4576,-0.49344 1.48029,-4.18182 z m -9.10371,-2.51643 c 1.73498,-3.18768 2.16458,-5.05505 2.61513,-11.3677 0.56204,-7.87472 1.85345,-14.66132 2.78982,-14.66132 0.3,0 0.40254,2.37273 0.22792,5.27273 -0.24552,4.07675 -0.056,5.60265 0.83651,6.72727 l 1.15404,1.45455 1.15404,-1.45455 c 0.89229,-1.12462 1.08203,-2.65052 0.83651,-6.72727 -0.17462,-2.9 -0.072,-5.27273 0.22792,-5.27273 0.93637,0 2.22778,6.7866 2.78982,14.66132 0.45055,6.31265 0.88015,8.18002 2.61513,11.3677 1.14174,2.09783 2.50793,4.17273 3.03585,4.61089 1.68757,1.40055 2.06851,-1.53897 0.66553,-5.13576 -1.90436,-4.88246 -2.18844,-7.60744 -0.90407,-8.67339 0.8032,-0.66656 0.93345,-1.46072 0.492,-2.99981 -0.33018,-1.15129 -0.42051,-4.71643 -0.2008,-7.92253 0.3848,-5.61359 0.31483,-5.96139 -1.89178,-9.40001 -1.26022,-1.96391 -2.99055,-4.19081 -3.84517,-4.94866 l -1.55382,-1.37793 0.49048,3.15765 c 0.26981,1.73671 1.13643,4.42367 1.92581,5.97103 1.51695,2.97349 1.93324,8.29592 0.708,9.05314 -0.44072,0.27238 -0.73621,-0.78527 -0.75003,-2.68435 -0.0131,-1.81755 -0.77404,-4.66119 -1.81149,-6.7702 -1.13295,-2.30313 -1.79128,-4.90294 -1.79549,-7.09091 -0.007,-3.35206 -0.0713,-3.45454 -2.18844,-3.45454 -2.11709,0 -2.18204,0.10248 -2.18844,3.45454 -0.007,2.18797 -0.66254,4.78778 -1.79549,7.09091 -1.03745,2.10901 -1.79832,4.95265 -1.81149,6.7702 -0.0138,1.89908 -0.30931,2.95673 -0.75003,2.68435 -1.22524,-0.75722 -0.80895,-6.07965 0.708,-9.05314 0.78938,-1.54736 1.656,-4.23432 1.92581,-5.97103 l 0.49048,-3.15765 -1.55382,1.37793 c -0.85462,0.75785 -2.58495,2.98475 -3.84517,4.94866 -2.20661,3.43862 -2.27658,3.78642 -1.89178,9.40001 0.21971,3.2061 0.12938,6.77124 -0.2008,7.92253 -0.44145,1.53909 -0.3112,2.33325 0.492,2.99981 1.28437,1.06595 1.00029,3.79093 -0.90407,8.67339 -1.40298,3.59679 -1.02204,6.53631 0.66553,5.13576 0.52792,-0.43816 1.89411,-2.51306 3.03585,-4.61089 z m -3.28567,-6.3471 c 0,-2.22741 -1.36386,-2.49489 -2.29549,-0.4502 -0.46589,1.02256 -1.0912,1.85919 -1.38953,1.85919 -0.49956,0 -0.29345,1.76854 0.50189,4.30632 0.40495,1.29215 3.18313,-3.69605 3.18313,-5.71531 z m 25.60836,3.59971 c 0.17688,-1.2049 0.10349,-2.19072 -0.16305,-2.19072 -0.26647,0 -0.86575,-0.83663 -1.33164,-1.85919 -0.92553,-2.03131 -2.29549,-1.78205 -2.29549,0.41768 0,1.68664 2.36582,6.48637 3.00706,6.10064 0.25389,-0.15273 0.60632,-1.26352 0.78312,-2.46841 z M 729.3849,635.13501 c -1.54451,-3.09112 -2.80822,-6.21777 -2.80822,-6.94812 0,-2.54592 -3.74016,-8.90253 -5.89328,-10.01595 -1.1587,-0.59919 -2.10672,-0.95433 -2.10672,-0.78922 0,0.16512 1.44651,3.03717 3.21447,6.38232 2.91714,5.51952 4.57425,10.12306 7.03251,19.53664 l 0.85462,3.27273 1.25738,-2.90909 1.25746,-2.90909 z m 33.18276,1.62022 c 1.04924,-3.8 3.36233,-9.64604 5.14022,-12.99119 1.77782,-3.34515 3.23244,-6.2172 3.23244,-6.38232 0,-0.16511 -0.948,0.19003 -2.10669,0.78922 -2.15317,1.11342 -5.89331,7.47003 -5.89331,10.01595 0,0.73035 -1.25557,3.857 -2.79011,6.94812 -2.75236,5.54424 -2.77506,5.65857 -1.67775,8.45717 1.3096,3.33993 1.26437,3.41543 4.0952,-6.83695 z m -28.90363,-12.83647 c 0.79309,-1.3996 0.58189,-1.83853 -2.01178,-4.18181 -1.5939,-1.43995 -2.98895,-2.61808 -3.10015,-2.61808 -0.1112,0 -0.29469,2.26711 -0.40785,5.03802 -0.17513,4.28934 0.0984,5.66734 1.84065,9.27273 l 2.04633,4.2347 0.37331,-5.09091 c 0.20538,-2.8 0.77214,-5.79459 1.25949,-6.65465 z m 26.45287,6.31451 c 1.08756,-2.43212 1.40225,-4.48966 1.25156,-8.18182 -0.11076,-2.71292 -0.29236,-4.93258 -0.40356,-4.93258 -0.1112,0 -1.50458,1.17658 -3.09629,2.61463 -2.82255,2.55 -2.86756,2.66597 -1.82029,4.69115 0.60843,1.17664 1.07862,4.062 1.08494,6.6581 0.0124,5.02857 0.40531,4.91665 2.98364,-0.84948 z m -33.54022,-11.61669 c 0,-3.49437 -0.15831,-3.7594 -5.75597,-9.63636 l -5.75596,-6.04317 1.02678,4.95334 c 1.24664,6.01394 2.12192,7.77393 3.86611,7.77393 1.53555,0 4.90813,3.13743 5.55146,5.1644 0.72581,2.28681 1.06758,1.57862 1.06758,-2.21214 z m 40.63753,-2.00718 c 0.64938,-0.49435 1.74189,-0.90923 2.42778,-0.92195 1.66436,-0.0308 2.55338,-1.86298 3.78349,-7.79706 l 1.02676,-4.95334 -5.75592,6.04317 c -5.67622,5.95942 -5.75593,6.09548 -5.75331,9.81818 v 3.77501 l 1.54385,-2.5326 c 0.84917,-1.39292 2.0752,-2.93706 2.72458,-3.43141 z m -29.67149,-3.32603 c 5.48145,-3.69395 7.41069,-10.56453 4.48851,-15.98532 -1.05375,-1.9548 -1.63484,-2.31967 -3.37738,-2.12078 -2.05193,0.23421 -2.0936,0.17251 -1.66553,-2.46558 0.24153,-1.48819 1.23498,-3.90845 2.20771,-5.37836 1.74887,-2.6427 2.31818,-6.18012 2.04552,-12.70901 l -0.11941,-2.85818 -2.61848,3.05907 c -4.53832,5.30203 -9.29207,6.58214 -13.93362,3.75213 -6.13837,-3.7426 -7.03931,-12.19923 -1.80439,-16.93676 3.86252,-3.49554 9.99467,-2.51267 10.84485,1.73822 0.42996,2.14986 0.53571,2.22183 1.44233,0.98189 0.53811,-0.7359 0.9784,-2.78091 0.9784,-4.54446 0,-2.67686 -0.40844,-3.61486 -2.47273,-5.67918 -3.98574,-3.98574 -6.78884,-3.18937 -13.76134,3.90962 -4.96389,5.05394 -5.71331,7.3518 -5.07928,15.57386 0.50075,6.49351 -0.35758,9.32202 -3.50998,11.56673 -1.14717,0.81686 -2.12726,2.03564 -2.17798,2.7084 -0.0507,0.67276 -0.35456,-0.78935 -0.67519,-3.24914 -0.76875,-5.89749 -2.62898,-9.35369 -7.34557,-13.6476 -16.47653,-14.99999 -20.25066,-20.26197 -20.25066,-28.23398 0,-3.78671 0.25525,-4.55867 2.12588,-6.42929 2.43539,-2.43539 4.9788,-2.72038 7.32477,-0.82072 1.57798,1.27777 1.66067,1.25626 3.94268,-1.02576 3.83603,-3.83603 9.82675,-4.64972 15.02496,-2.04079 2.22393,1.11617 6.2149,5.41183 8.5634,9.21716 1.94552,3.1524 2.92749,3.46656 10.15642,3.24947 l 5.31985,-0.15978 2.86197,3.06275 c 3.75789,4.02159 3.67323,2.26993 -0.13288,-2.74958 -5.08021,-6.69984 -7.29658,-12.2157 -7.73549,-19.25168 -0.22465,-3.60032 -0.1021,-6.1524 0.29535,-6.1524 0.37353,0 1.2968,1.81714 2.05171,4.03809 1.7048,5.01527 2.9344,6.01545 2.38814,1.94244 -0.21905,-1.63319 -1.58807,-4.89699 -3.04218,-7.25288 -1.45418,-2.35591 -2.97651,-5.48795 -3.38299,-6.9601 -0.51045,-1.84875 -1.15373,-2.67664 -2.07973,-2.67664 -1.06062,0 -1.66992,1.22013 -2.91667,5.84066 -0.8668,3.21237 -1.80731,7.19574 -2.09005,8.85195 -0.4744,2.7789 -2.30009,4.85665 -2.32038,2.64072 -0.0206,-2.24705 -5.26692,-12.74436 -9.6607,-19.32991 -5.92686,-8.88337 -12.79504,-16.5302 -12.84309,-14.29909 -0.018,0.83738 0.62176,3.42497 1.42176,5.75022 0.8,2.32524 1.45454,5.31318 1.45454,6.63985 0,2.69544 -2.83141,9.13037 -3.76385,8.55408 -0.32988,-0.20387 -0.59978,-1.96262 -0.59978,-3.90832 0,-2.7851 -0.41906,-4.03566 -1.96991,-5.87875 -2.24842,-2.6721 -6.8613,-5.00376 -9.94571,-5.02725 -3.38376,-0.0258 -7.45529,-1.52489 -10.13045,-3.72998 -2.57058,-2.11889 -5.17507,-6.62258 -4.6832,-8.0982 0.15355,-0.46065 1.03374,0.72115 1.95597,2.62623 2.00588,4.14358 5.91664,6.97531 10.35765,7.49981 l 3.14292,0.37119 -2.5067,-1.40806 c -1.37868,-0.77443 -2.6515,-1.84249 -2.8285,-2.37348 -0.20961,-0.62884 0.53755,-0.44473 2.14306,0.52807 4.52347,2.74084 6.3147,2.66068 2.30035,-0.10295 -2.09049,-1.43917 -4.54503,-3.91979 -5.45454,-5.51249 l -1.65367,-2.89582 -7.78396,-0.006 c -4.48818,-0.003 -8.5941,-0.37473 -9.69735,-0.8774 -3.1287,-1.42553 -7.63252,-11.62816 -10.37016,-23.49184 -2.42664,-10.51588 -3.29955,-20.08592 -3.28371,-36 0.0211,-21.15882 2.11894,-33.19548 8.57705,-49.21131 3.97935,-9.86839 0.97957,-8.97029 29.9623,-8.97029 h 24.99691 l -5.00878,5.88182 c -8.52111,10.00634 -13.61183,19.74759 -16.98783,32.50672 -1.48541,5.61393 -1.67659,8.00195 -1.67194,20.88419 0.004,12.93778 0.19442,15.26352 1.71677,21.04215 3.4343,13.03621 9.7909,24.75966 18.46165,34.04876 l 3.90345,4.18182 H 691.1657 c -8.52395,0 -15.49811,0.19496 -15.49811,0.43324 0,1.64195 3.09104,4.85739 7.8684,8.18507 l 5.58615,3.89104 -3.97516,-4.07286 c -5.42955,-5.563 -3.73695,-5.17279 2.05002,0.4726 l 4.65945,4.54545 -4.09443,-5.44938 c -3.47221,-4.62126 -4.87876,-7.27789 -3.85327,-7.27789 0.13263,0 1.25517,1.56491 2.49454,3.47757 1.23936,1.91266 2.99304,4.12175 3.89707,4.90909 1.51163,1.31649 1.48134,1.14935 -0.37683,-2.08012 -1.1113,-1.9314 -1.87469,-3.65749 -1.69642,-3.83576 0.46752,-0.46751 1.70486,1.17043 4.24618,5.62092 1.22744,2.14956 2.00696,3.25375 1.73226,2.45375 -0.27471,-0.8 -0.6729,-2.76363 -0.88487,-4.36363 -0.21197,-1.6 -1.05496,-3.64546 -1.8733,-4.54546 -2.50633,-2.75645 -0.19057,-1.81769 3.47461,1.40853 l 3.45918,3.0449 -1.59367,-3.12386 c -1.06645,-2.09041 -1.27471,-3.01973 -0.62951,-2.8091 0.53028,0.1731 1.73446,2.23637 2.67596,4.58503 1.65246,4.12225 7.26411,12.39681 6.402,9.43996 -0.23326,-0.8 -0.74768,-2.92728 -1.14317,-4.72728 -0.39549,-1.8 -1.21116,-4.66363 -1.8126,-6.36363 l -1.09352,-3.09091 h 2.14956 c 2.08545,0 2.14955,0.10508 2.14955,3.52364 0,4.49418 1.49523,5.92983 7.08741,6.80503 2.30192,0.36026 4.91017,1.12915 5.7961,1.70863 0.88593,0.57948 2.74436,1.05361 4.12987,1.05361 1.3855,0 3.00159,0.4825 3.59131,1.07222 0.94478,0.94477 1.12493,0.93485 1.51568,-0.0835 0.27731,-0.72263 -0.52192,-2.28266 -2.13285,-4.16313 -6.12105,-7.14524 -10.23752,-11.33387 -11.15624,-11.3518 -0.66611,-0.013 -0.8053,-0.43295 -0.42821,-1.29199 0.30727,-0.7 1.94871,-5.36364 3.64764,-10.36364 5.37521,-15.81945 7.58566,-29.48862 7.58566,-46.90909 0,-17.68755 -2.1566,-30.78489 -7.93357,-48.18182 l -3.44144,-10.36363 h 31.04192 31.04189 l -3.47484,10.36363 c -9.21462,27.48235 -10.56313,55.17639 -4.01076,82.36617 1.48145,6.14753 5.4056,18.5442 7.3085,23.08838 0.3544,0.84618 0.20226,1.27918 -0.45389,1.29199 -0.91869,0.018 -5.0352,4.20656 -11.15621,11.3518 -1.61099,1.88047 -2.41019,3.4405 -2.13288,4.16313 0.39077,1.01833 0.57091,1.02825 1.51571,0.0835 0.58967,-0.58972 2.20575,-1.07222 3.59127,-1.07222 1.38553,0 3.24393,-0.47413 4.1299,-1.05361 0.88589,-0.57948 3.49418,-1.34837 5.79607,-1.70863 5.65367,-0.88482 7.08443,-2.29309 7.09854,-6.98685 0.008,-2.66061 0.20997,-3.39785 0.71615,-2.61455 0.46996,0.72727 0.70873,0.78788 0.71614,0.18182 0.007,-0.5 0.65113,-0.90909 1.43339,-0.90909 1.36,0 1.3744,0.13544 0.3288,3.09091 -0.60146,1.7 -1.41709,4.56363 -1.81259,6.36363 -0.39549,1.8 -0.90996,3.92728 -1.1432,4.72728 -0.8621,2.95685 4.74953,-5.31771 6.40204,-9.43996 0.94145,-2.34866 2.14567,-4.41193 2.67593,-4.58503 0.64523,-0.21063 0.43694,0.71869 -0.62953,2.8091 l -1.59367,3.12386 3.4592,-3.0449 c 3.66516,-3.22622 5.98094,-4.16498 3.47462,-1.40853 -0.81833,0.9 -1.66131,2.94546 -1.87331,4.54546 -0.212,1.6 -0.61019,3.56363 -0.88488,4.36363 -0.27469,0.8 0.5048,-0.30419 1.73229,-2.45375 2.54131,-4.45049 3.77862,-6.08843 4.24619,-5.62092 0.17825,0.17827 -0.58517,1.90436 -1.69644,3.83576 -1.85818,3.22947 -1.88844,3.39661 -0.37687,2.08012 0.90407,-0.78734 2.65774,-2.99643 3.89709,-4.90909 1.23934,-1.91266 2.36189,-3.47757 2.49454,-3.47757 1.02553,0 -0.38101,2.65663 -3.85323,7.27789 l -4.09448,5.44938 4.6595,-4.54545 c 5.78698,-5.64539 7.47956,-6.0356 2.04996,-0.4726 l -3.97513,4.07286 5.60917,-3.89104 c 3.15214,-2.18663 6.17134,-4.92639 6.89265,-6.25468 0.70589,-1.3 1.53636,-2.36363 1.84538,-2.36363 2.04007,0 -2.09716,5.60484 -6.24654,8.4625 -3.97353,2.73656 -2.1304,2.7833 2.36421,0.0599 1.60553,-0.9728 2.35266,-1.15691 2.14306,-0.52807 -0.17702,0.53099 -1.44982,1.59905 -2.82851,2.37348 l -2.50669,1.40806 3.14291,-0.37119 c 4.44102,-0.5245 8.35178,-3.35623 10.35767,-7.49981 0.92225,-1.90508 1.8024,-3.08688 1.95593,-2.62623 0.49192,1.47562 -2.11258,5.97931 -4.6832,8.09821 -2.67513,2.20508 -6.74669,3.7042 -10.1304,3.72997 -3.08444,0.0235 -7.69731,2.35515 -9.94575,5.02725 -1.55083,1.84309 -1.96989,3.09366 -1.96989,5.87875 0,1.9457 -0.26989,3.70445 -0.59978,3.90832 -0.93244,0.57629 -3.76385,-5.85864 -3.76385,-8.55408 0,-1.32667 0.65454,-4.31461 1.45454,-6.63985 0.8,-2.32524 1.43978,-4.91284 1.42175,-5.75022 -0.048,-2.2311 -6.91622,5.41572 -12.84306,14.29909 -4.39382,6.58555 -9.64014,17.08286 -9.66072,19.32991 -0.0204,2.21593 -1.84597,0.13819 -2.32037,-2.64072 -0.28276,-1.65621 -1.22327,-5.63958 -2.09003,-8.85195 -1.24677,-4.62053 -1.85608,-5.84066 -2.91666,-5.84066 -0.92604,0 -1.56931,0.82789 -2.07978,2.67664 -0.40647,1.47215 -1.9288,4.60419 -3.38298,6.9601 -1.45411,2.3559 -2.82313,5.61969 -3.04218,7.25288 -0.54626,4.07301 0.68334,3.07283 2.38814,-1.94244 0.75491,-2.22095 1.67818,-4.03809 2.05171,-4.03809 0.39745,0 0.52,2.55208 0.29535,6.1524 -0.43891,7.03598 -2.65528,12.55184 -7.73549,19.25168 -3.80611,5.01952 -3.89077,6.77117 -0.13288,2.74958 l 2.86197,-3.06275 5.31985,0.15978 c 7.22895,0.21709 8.21091,-0.0971 10.15644,-3.24946 2.34851,-3.80534 6.33941,-8.101 8.56334,-9.21717 5.19826,-2.60893 11.18895,-1.79523 15.02502,2.04079 2.28196,2.28202 2.36465,2.30353 3.94269,1.02576 2.34596,-1.89966 4.88938,-1.61467 7.32473,0.82072 1.87062,1.87062 2.12589,2.64258 2.12589,6.42929 0,7.97201 -3.77411,13.23399 -20.25069,28.23398 -4.71658,4.29391 -6.5768,7.75011 -7.34553,13.64761 -0.32065,2.45978 -0.62451,3.92189 -0.6752,3.24913 -0.0509,-0.67276 -1.03084,-1.89154 -2.17796,-2.7084 -3.15244,-2.24471 -4.01077,-5.07322 -3.51004,-11.56673 0.63404,-8.22205 -0.11534,-10.51992 -5.07927,-15.57386 -6.97244,-7.09899 -9.77557,-7.89536 -13.76131,-3.90962 -2.06429,2.06432 -2.47273,3.00232 -2.47273,5.67918 0,1.76355 0.44029,3.80856 0.9784,4.54446 0.90662,1.23995 1.01237,1.16797 1.44233,-0.98189 0.85018,-4.25089 6.98233,-5.23376 10.84487,-1.73822 5.23491,4.73753 4.33397,13.19416 -1.80443,16.93676 -4.64153,2.83001 -9.39528,1.54991 -13.9336,-3.75213 l -2.61848,-3.05904 -0.11941,2.85818 c -0.27266,6.52889 0.29665,10.06631 2.04552,12.70901 0.97273,1.46991 1.96618,3.89017 2.20771,5.37836 0.42807,2.63809 0.3864,2.69979 -1.66553,2.46558 -1.74254,-0.19889 -2.32363,0.16598 -3.37738,2.12078 -1.55018,2.87573 -1.65142,8.25164 -0.20792,11.04303 1.22552,2.36997 4.77738,5.54746 6.98378,6.24774 3.27745,1.04023 5.50232,-0.61599 18.48349,-13.75915 20.37025,-20.62448 38.45491,-42.52785 49.1,-59.46768 6.45425,-10.27079 14.42705,-26.27753 17.7733,-35.68295 1.52699,-4.2919 3.19702,-8.37868 3.71106,-9.08173 1.76218,-2.40987 1.98611,3.18027 0.42873,10.70024 -0.78662,3.79826 -1.34044,6.99578 -1.23062,7.10557 0.69178,0.69176 8.66392,-22.74832 11.29345,-33.20545 3.91229,-15.5585 4.72713,-23.23196 4.71927,-44.44244 -0.0116,-31.6314 -3.21309,-53.97602 -11.32298,-79.03143 -8.81621,-27.23754 -20.56138,-49.32416 -37.44945,-70.42311 -16.43331,-20.53066 -32.71622,-32.94474 -51.58553,-39.32856 -8.27141,-2.79837 -18.57629,-2.79837 -26.8477,0 -18.86928,6.38382 -35.15225,18.7979 -51.58549,39.32856 -16.88811,21.09895 -28.6333,43.18557 -37.4495,70.42311 -8.10988,25.05541 -11.31124,47.40003 -11.32297,79.03143 -0.008,21.21048 0.80697,28.88394 4.71928,44.44244 2.62952,10.45713 10.60167,33.89721 11.29343,33.20545 0.1098,-0.10979 -0.44398,-3.30731 -1.23061,-7.10557 -1.5574,-7.51997 -1.33342,-13.11011 0.42872,-10.70024 0.51408,0.70305 2.18405,4.78983 3.71104,9.08173 1.527,4.29191 5.088,12.38528 7.91334,17.98528 9.21411,18.26294 18.41079,31.61159 36.14404,52.46175 9.65184,11.34831 33.83966,36.42161 36.62075,37.96141 2.24022,1.24033 4.28204,1.00464 6.96604,-0.80411 z m 49.85963,-133.0878 c 9.04131,-9.66551 14.92335,-21.12232 18.5688,-36.16761 0.65018,-2.6835 0.95629,-8.78728 0.92997,-18.54545 -0.0356,-13.32656 -0.19797,-15.13167 -1.93389,-21.54101 -3.34699,-12.35734 -9.212,-23.13429 -17.66488,-32.45899 l -4.12043,-4.54546 h 25.01294 c 18.88364,0 25.30778,0.22277 26.21629,0.9091 1.64662,1.24396 7.28073,16.18273 9.12007,24.18181 5.6384,24.52129 4.40975,58.05147 -2.88625,78.76348 -2.64167,7.49922 -3.90109,10.12331 -5.91651,12.32743 -1.49622,1.63633 -1.49673,1.63636 -26.54378,1.63636 h -25.04749 z m 38.39637,-9.44034 c 1.34567,-1.19117 2.34516,-3.51607 3.6736,-8.54545 5.4109,-20.48476 5.92603,-44.41308 1.43636,-66.71876 -2.04276,-10.14902 -3.56713,-14.46986 -5.46255,-15.48427 -1.44443,-0.77303 -11.51076,-0.97247 -13.35541,-0.26461 -1.70619,0.6547 -1.44779,2.29683 1.78494,11.34379 4.05738,11.35501 5.58604,17.75419 6.54669,27.40617 1.46422,14.71081 -1.09083,31.14593 -6.97076,44.83851 -1.38116,3.21646 -2.51127,6.3846 -2.51127,7.04033 0,1.41224 1.59374,1.78842 8.14123,1.92162 4.10058,0.0834 5.16015,-0.15909 6.71717,-1.53733 z M 730.21305,366.72719 c 0,-0.11542 0.65454,-1.49371 1.45454,-3.06286 1.44022,-2.82494 2.07258,-7.8688 0.81607,-6.50909 -0.3512,0.38 -1.30152,2.49091 -2.11192,4.69091 -1.42095,3.85742 -1.49229,3.92623 -2.00328,1.93035 -1.52909,-5.97256 1.6312,-15.85656 7.57709,-23.69807 3.80611,-5.01951 3.89077,-6.77117 0.13288,-2.74958 l -2.86197,3.06275 -5.31985,-0.15977 c -7.22893,-0.2171 -8.2109,0.0971 -10.15642,3.24946 -2.3485,3.80533 -6.33947,8.10099 -8.5634,9.21716 -5.19821,2.60893 -11.18893,1.79524 -15.02496,-2.04079 -2.28201,-2.28202 -2.3647,-2.30353 -3.94268,-1.02575 -2.34597,1.89965 -4.88938,1.61467 -7.32477,-0.82073 -1.87063,-1.87062 -2.12588,-2.64258 -2.12588,-6.42929 0,-7.97201 3.77413,-13.23398 20.25066,-28.23398 4.71659,-4.29391 6.57682,-7.7501 7.34557,-13.6476 0.32063,-2.45979 0.62446,-3.9219 0.67519,-3.24914 0.0507,0.67276 1.03081,1.89155 2.17798,2.7084 3.1524,2.24471 4.01073,5.07322 3.50998,11.56673 -0.63403,8.22206 0.11539,10.51992 5.07928,15.57386 6.9725,7.09899 9.7756,7.89536 13.76134,3.90962 2.06429,-2.06432 2.47273,-3.00232 2.47273,-5.67917 0,-1.76355 -0.44029,-3.80856 -0.9784,-4.54447 -0.90662,-1.23994 -1.01237,-1.16797 -1.44233,0.98189 -0.85018,4.2509 -6.98233,5.23376 -10.84485,1.73823 -5.23492,-4.73754 -4.33398,-13.19416 1.80439,-16.93677 4.64155,-2.83001 9.3953,-1.5499 13.93362,3.75213 l 2.61848,3.05907 0.11941,-2.85818 c 0.27266,-6.52889 -0.29665,-10.06631 -2.04552,-12.70901 -0.97273,-1.4699 -1.96618,-3.89017 -2.20771,-5.37836 -0.42807,-2.63808 -0.3864,-2.69978 1.66553,-2.46558 1.7128,0.1955 2.32385,-0.16603 3.28189,-1.94159 0.77403,-1.43451 1.74087,-2.18182 2.82276,-2.18182 1.08189,0 2.04873,0.74731 2.82276,2.18182 0.95804,1.77556 1.56909,2.13709 3.28189,1.94159 2.05193,-0.2342 2.0936,-0.1725 1.66553,2.46558 -0.24153,1.48819 -1.23498,3.90846 -2.20771,5.37836 -1.74887,2.6427 -2.31818,6.18012 -2.04552,12.70901 l 0.11941,2.85818 2.61848,-3.05907 c 4.53832,-5.30203 9.29207,-6.58214 13.9336,-3.75213 6.1384,3.74261 7.03934,12.19923 1.80443,16.93677 -3.86254,3.49553 -9.99469,2.51267 -10.84487,-1.73823 -0.42996,-2.14986 -0.53571,-2.22183 -1.44233,-0.98189 -0.53811,0.73591 -0.9784,2.78092 -0.9784,4.54447 0,2.67685 0.40844,3.61485 2.47273,5.67917 3.98574,3.98574 6.78887,3.18937 13.76131,-3.90962 4.96393,-5.05394 5.71331,-7.3518 5.07927,-15.57386 -0.50073,-6.49351 0.3576,-9.32202 3.51004,-11.56673 1.14712,-0.81685 2.12727,-2.03564 2.17796,-2.7084 0.0509,-0.67276 0.35455,0.78935 0.6752,3.24914 0.76873,5.8975 2.62895,9.35369 7.34553,13.6476 16.47658,15 20.25069,20.26197 20.25069,28.23398 0,3.78671 -0.25527,4.55867 -2.12589,6.42929 -2.43535,2.4354 -4.97877,2.72038 -7.32473,0.82073 -1.57804,-1.27778 -1.66073,-1.25627 -3.94269,1.02575 -3.83607,3.83603 -9.82676,4.64972 -15.02502,2.04079 -2.22393,-1.11617 -6.21483,-5.41183 -8.56334,-9.21716 -1.94553,-3.15239 -2.92749,-3.46656 -10.15644,-3.24946 l -5.31985,0.15977 -2.86197,-3.06275 c -3.75789,-4.02159 -3.67323,-2.26993 0.13288,2.74958 5.94589,7.84151 9.10618,17.72551 7.57709,23.69807 -0.51099,1.99588 -0.58233,1.92707 -2.00328,-1.93035 -0.8104,-2.2 -1.76072,-4.31091 -2.11192,-4.69091 -1.25651,-1.35971 -0.62415,3.68415 0.81607,6.50909 1.66327,3.26239 1.66589,3.27272 0.83774,3.27272 -1.05847,0 -3.29156,-5.80283 -3.33847,-8.67501 -0.0531,-3.26109 -1.16109,-4.75556 -4.96305,-6.69517 l -2.83375,-1.44569 0.52255,4.18227 c 0.28734,2.30025 1.2952,5.92951 2.23963,8.06504 1.92102,4.34376 1.97462,4.56856 1.08873,4.56856 -0.34567,0 -1.19091,-1.47272 -1.87833,-3.27272 -0.68749,-1.8 -1.51294,-3.27273 -1.83447,-3.27273 -0.32145,0 -0.80538,1.47273 -1.07527,3.27273 -0.38131,2.5424 -0.79549,3.27272 -1.85622,3.27272 -1.06073,0 -1.47491,-0.73032 -1.85622,-3.27272 -0.26989,-1.8 -0.75382,-3.27273 -1.07527,-3.27273 -0.32153,0 -1.14698,1.47273 -1.83447,3.27273 -0.68742,1.8 -1.53266,3.27272 -1.87833,3.27272 -0.88589,0 -0.83229,-0.2248 1.08873,-4.56856 0.94443,-2.13553 1.95229,-5.76479 2.23963,-8.06504 l 0.52255,-4.18227 -2.83375,1.44569 c -3.80196,1.93961 -4.90982,3.43408 -4.96305,6.69517 -0.0466,2.87218 -2.28,8.67501 -3.33847,8.67501 -0.3392,0 -0.6168,-0.0944 -0.6168,-0.20986 z m 15.51985,-4.31446 c 0.456,-3.85065 -0.3064,-5.88915 -1.68647,-4.50909 -0.7848,0.78484 -0.14008,8.30614 0.71207,8.30614 0.28858,0 0.72705,-1.70867 0.9744,-3.79705 z m 0.11651,-5.65749 c 0.92785,0.77004 1.09091,0.58407 1.09091,-1.2442 0,-3.01822 -1.54815,-10.39217 -2.18182,-10.39217 -0.63367,0 -2.18182,7.37395 -2.18182,10.39217 0,1.82827 0.16306,2.01424 1.09091,1.2442 0.87033,-0.72232 1.31149,-0.72232 2.18182,0 z m -11.50662,-7.73526 c 2.48276,-3.26442 7.10371,-6.25355 10.02604,-6.48542 4.44909,-0.35302 10.14014,4.35213 14.1216,11.67522 l 1.5816,2.90909 -0.43862,-2.54545 c -1.13724,-6.5993 -6.43302,-14.03212 -12.16531,-17.07447 -2.69927,-1.43264 -2.71993,-1.43264 -5.4192,0 -5.73229,3.04235 -11.02807,10.47517 -12.16531,17.07447 l -0.43862,2.54545 1.5816,-2.90909 c 0.86989,-1.6 2.36218,-3.93541 3.31622,-5.1898 z m -24.18628,1.64587 c 1.42661,-1.08813 3.92862,-3.94397 5.56001,-6.34631 1.6314,-2.40233 3.73693,-4.66092 4.67896,-5.01908 0.94202,-0.35816 3.95313,-0.46338 6.69133,-0.23381 4.61198,0.38665 5.14442,0.27783 7.23082,-1.47775 1.23869,-1.04232 2.6616,-2.88357 3.16203,-4.09166 0.50044,-1.2081 1.19739,-2.19655 1.54888,-2.19655 0.35149,0 0.64683,-2.20909 0.65643,-4.90909 0.009,-2.7 0.30073,-6.12918 0.64706,-7.62041 0.54502,-2.34645 0.34909,-3.15392 -1.45586,-6 -3.60145,-5.67888 -7.95149,-3.4184 -7.92472,4.11806 0.0131,3.64914 1.07272,6.04185 1.81701,4.1023 0.24851,-0.64761 0.39099,-1.62025 0.31659,-2.16143 -0.0744,-0.54119 -0.0713,-1.80215 0.007,-2.80215 0.11534,-1.4777 0.53963,-1.00102 2.26574,2.54545 3.73797,7.68027 2.27222,12.83425 -4.54872,15.99445 -4.34773,2.01432 -11.73628,2.99838 -14.5108,1.93264 -1.84009,-0.70681 -1.93347,-0.62065 -2.38452,2.20001 -1.05004,6.56658 -7.48285,9.26895 -12.14599,5.10243 -4.47079,-3.99464 -3.59988,-13.95713 1.63341,-18.6851 1.549,-1.39943 3.26664,-2.54443 3.81696,-2.54443 1.13028,0 2.25514,-2.46135 3.32372,-7.27273 1.04754,-4.71663 0.93823,-5.03229 -0.75558,-2.18182 -0.8319,1.4 -4.53664,5.49091 -8.23274,9.09091 -7.81561,7.61239 -9.369,10.40722 -9.70135,17.45455 -0.20109,4.26385 0.0321,5.56351 1.43514,8 3.3172,5.76042 11.37317,7.19378 16.8695,3.00152 z m 81.86373,1.17917 c 1.41273,-0.7088 3.276,-2.55915 4.20975,-4.18069 1.40305,-2.43649 1.63622,-3.73615 1.43513,-8 -0.33237,-7.04733 -1.88575,-9.84216 -9.70131,-17.45455 -3.69615,-3.6 -7.40087,-7.69091 -8.2328,-9.09091 -1.69375,-2.85047 -1.80306,-2.53481 -0.75557,2.18182 1.06859,4.81138 2.19346,7.27273 3.32371,7.27273 0.55033,0 2.268,1.145 3.81702,2.54443 3.36429,3.03945 4.81004,7.38053 4.28335,12.86164 -0.29549,3.07503 -0.78982,4.16144 -2.64997,5.82346 -4.66312,4.16652 -11.09592,1.46415 -12.14596,-5.10243 -0.45105,-2.82066 -0.54444,-2.90682 -2.38458,-2.20001 -2.77447,1.06574 -10.16306,0.0817 -14.51076,-1.93264 -6.82095,-3.1602 -8.2867,-8.31418 -4.54873,-15.99445 1.72611,-3.54647 2.1504,-4.02315 2.26574,-2.54545 0.078,1 0.0811,2.26096 0.007,2.80215 -0.0744,0.54118 0.0684,1.51382 0.31658,2.16143 0.74429,1.93955 1.80407,-0.45316 1.81702,-4.1023 0.0269,-7.53646 -4.32328,-9.79694 -7.92473,-4.11806 -1.80495,2.84608 -2.00087,3.65355 -1.45586,6 0.34633,1.49123 0.63753,4.92041 0.64706,7.62041 0.009,2.7 0.30494,4.90909 0.65644,4.90909 0.35149,0 1.04843,0.98845 1.54887,2.19655 0.50043,1.20809 1.92334,3.04934 3.16203,4.09166 2.0864,1.75558 2.61884,1.8644 7.23084,1.47775 2.73818,-0.22957 5.74931,-0.12435 6.69135,0.23381 0.94196,0.35816 3.00589,2.55018 4.5864,4.87117 1.5805,2.32098 3.4869,4.77004 4.23643,5.44234 4.02335,3.6088 9.57571,4.48886 14.07586,2.23105 z m -102.40991,-3.56614 c 1.80512,-1.63361 1.67131,-2.29628 -0.38433,-1.90332 -4.05764,0.77567 -6.108,-6.18208 -3.77249,-12.80161 0.58226,-1.65029 0.91504,-3.00053 0.73953,-3.00053 -0.66793,0 -3.88293,7.10665 -4.35615,9.62913 -1.22821,6.54691 3.74918,11.71824 7.77344,8.07633 z m 115.5014,0.48194 c 1.86066,-0.99581 3.16917,-5.35587 2.56837,-8.55827 -0.47324,-2.52248 -3.68822,-9.62913 -4.35615,-9.62913 -0.17549,0 0.15731,1.35024 0.73957,3.00053 2.33549,6.61953 0.28509,13.57728 -3.77251,12.80161 -2.028,-0.38767 -2.13448,-0.0173 -0.51069,1.77696 1.33767,1.47808 3.28996,1.70083 5.33141,0.6083 z m -114.7909,-6.1874 c -0.14073,-1.2 -0.54982,-2.73303 -0.90909,-3.40674 -1.31682,-2.46923 -0.69954,-7.56922 1.42624,-11.7836 1.37566,-2.72727 1.66046,-3.74338 0.84144,-3.00218 -2.41453,2.18512 -5.38154,9.21204 -5.68996,13.47579 -0.35745,4.9417 0.69962,7.452 3.00007,7.1245 1.29894,-0.18492 1.5407,-0.62214 1.3313,-2.40777 z m 21.36886,-1.13364 c 3.51094,-6.78942 -1.68987,-13.99416 -6.7025,-9.28504 -2.08749,1.96109 -2.19063,5.18401 -0.22869,7.14595 1.7537,1.7537 2.45099,1.80875 3.94805,0.31169 2.02962,-2.02962 0.95414,-6.04396 -1.37934,-5.14852 -0.87087,0.33418 -1.07427,0.93 -0.71893,2.10597 0.38012,1.25803 0.29277,1.44777 -0.37507,0.81475 -2.33655,-2.21478 0.8137,-5.92615 3.2875,-3.87307 1.27572,1.05875 1.40021,5.88131 0.18325,7.09827 -1.28533,1.28533 -4.55441,1.06133 -5.83763,-0.4 -2.99711,-3.4131 -2.06644,-7.87799 2.16213,-10.37291 3.23463,-1.90848 5.35382,-1.51701 12.27412,2.2673 3.21618,1.75874 6.11165,2.82209 7.63636,2.80442 l 2.45592,-0.0284 -2.18181,-0.97672 c -1.2,-0.5372 -3.32728,-2.20138 -4.72728,-3.69819 -6.36952,-6.80996 -10.97595,-8.41037 -15.77867,-5.48197 -3.0829,1.87976 -4.45145,4.10806 -5.42896,8.83952 -0.67344,3.25963 -0.61391,4.38304 0.3535,6.67068 2.17673,5.14736 8.65463,5.85404 11.05805,1.20633 z m 77.00961,-1.03035 c 1.22974,-2.49042 1.29651,-3.297 0.56254,-6.7961 -1.00421,-4.78747 -2.3664,-7.0087 -5.45192,-8.89009 -4.80277,-2.9284 -9.40917,-1.32799 -15.77869,5.48197 -1.4,1.49681 -3.52728,3.161 -4.72728,3.69819 l -2.18181,0.97672 2.45592,0.0284 c 1.52473,0.0177 4.42015,-1.04568 7.63637,-2.80442 6.92029,-3.78431 9.03949,-4.17577 12.27411,-2.2673 4.22858,2.49492 5.15927,6.95981 2.1621,10.37291 -1.2832,1.46133 -4.55229,1.68533 -5.8376,0.4 -1.21694,-1.21696 -1.09243,-6.03952 0.18328,-7.09827 2.47374,-2.05308 5.624,1.6583 3.28749,3.87307 -0.66786,0.63302 -0.7552,0.44328 -0.37506,-0.81475 0.35528,-1.17597 0.15193,-1.77178 -0.71898,-2.10597 -2.33345,-0.89544 -3.40894,3.1189 -1.37934,5.14852 1.49709,1.49706 2.1944,1.44201 3.94807,-0.31169 1.90393,-1.90393 1.84931,-4.94062 -0.12676,-7.04403 -4.6936,-4.99608 -10.1483,1.9824 -6.98175,8.93214 2.18611,4.79807 8.51571,4.35162 11.04931,-0.77937 z m 14.29549,3.15313 c 2.02167,-3.77748 -1.14327,-15.54912 -5.15724,-19.18166 -0.80429,-0.72787 -0.49214,0.35176 0.89077,3.08151 2.25156,4.44416 2.43796,7.96401 0.75025,14.16551 -0.40276,1.47997 -0.55229,2.87088 -0.33222,3.09091 0.93055,0.93055 3.07666,0.28575 3.84844,-1.15627 z m -60.56858,-7.54326 c 0.11724,-0.0964 -0.28684,-0.36716 -0.89796,-0.60168 -0.67826,-0.26027 -1.4203,0.15119 -1.90459,1.05611 -0.73898,1.38069 -0.67731,1.42202 0.89797,0.60168 0.93025,-0.48446 1.78734,-0.95971 1.90458,-1.05611 z m 7.43767,0.39938 c -0.48102,-0.89886 -1.19542,-1.26189 -1.92909,-0.98034 -0.96574,0.37058 -0.87047,0.61048 0.55658,1.40168 2.25149,1.24834 2.26408,1.24449 1.37251,-0.42134 z m -55.17651,-8.87621 c 1.00614,-1.33298 2.19904,-3.5017 2.65089,-4.8194 0.45185,-1.31769 1.54994,-3.44496 2.44021,-4.72727 l 1.61866,-2.33147 -1.6783,1.45454 c -1.93051,1.67312 -7.55604,9.47873 -8.38639,11.63637 -1.09302,2.84023 -1.72756,6.37323 -1.3305,7.40797 0.23825,0.62086 0.9039,-0.43055 1.62944,-2.57373 0.67466,-1.99287 2.04985,-4.71402 3.05599,-6.04701 z m 104.89084,5.94608 c -1.05891,-4.92152 -5.87826,-12.9881 -9.78,-16.36968 l -1.67833,-1.45454 1.61862,2.33147 c 0.89033,1.28231 1.97665,3.35824 2.41411,4.61318 0.43745,1.25493 1.88618,3.90263 3.21942,5.88377 1.33323,1.98114 2.64218,4.76487 2.9088,6.18604 0.3341,1.78096 0.672,2.28098 1.08727,1.60898 0.33142,-0.53625 0.42596,-1.79589 0.21011,-2.79922 z m -81.00153,0.13888 c -1.8,-1.10508 -4.19005,-2.40883 -5.31123,-2.89722 l -2.03849,-0.88796 1.91044,2.50472 c 2.22027,2.91092 2.74574,3.18753 6.16656,3.24612 l 2.54545,0.0436 z m 54.81149,1.61008 c 0.61171,-0.23475 1.96495,-1.54471 3.00706,-2.91104 l 1.89483,-2.48422 -2.03854,0.88796 c -1.12117,0.48839 -3.5112,1.79214 -5.3112,2.89722 l -3.27273,2.00926 2.30415,0.0138 c 1.26727,0.008 2.80465,-0.17825 3.41643,-0.413 z m -25.72058,-0.96297 1.81818,-0.51753 -1.58858,-0.86452 c -0.87367,-0.47549 -2.28611,-0.86452 -3.13869,-0.86452 -0.85258,0 -2.26502,0.38903 -3.13869,0.86452 l -1.58858,0.86452 1.81818,0.51753 c 1,0.28464 2.30909,0.51753 2.90909,0.51753 0.6,0 1.90909,-0.23289 2.90909,-0.51753 z m -1.66233,-4.94788 c -1.17752,-1.17748 -1.316,-1.17748 -2.49352,0 -1.17746,1.17749 -1.10822,1.24676 1.24676,1.24676 2.35498,0 2.42422,-0.0692 1.24676,-1.24676 z m -3.61905,-2.89177 c -1.57229,-1.57231 -2.30364,-0.84102 -1.67273,1.6727 0.4592,1.82949 0.57673,1.88218 1.69775,0.76115 1.12102,-1.12103 1.11927,-1.28952 -0.0247,-2.43385 z m 6.7248,0.32035 c 0.0138,-1.56099 -0.95847,-1.64242 -2.17069,-0.18182 -0.72357,0.87186 -0.71782,1.31687 0.0284,2.21624 0.74597,0.89884 1.0544,0.93543 1.53244,0.18182 0.32916,-0.51893 0.60356,-1.51624 0.60967,-2.21624 z m -2.97804,-1.53987 c 1.24822,-1.50399 -0.93374,-3.18583 -2.47432,-1.90724 -0.83659,0.69431 -0.90233,1.15087 -0.27462,1.90724 0.45389,0.54693 1.07243,0.99441 1.37447,0.99441 0.30204,0 0.92058,-0.44748 1.37447,-0.99441 z m -19.68203,-2.69004 c -1.06387,-3.05182 -0.38081,-9.09583 1.22902,-10.87465 0.72341,-0.7994 2.6045,-1.8397 4.18021,-2.31179 2.60335,-0.77999 2.74582,-0.94537 1.5608,-1.8119 -2.27854,-1.66609 -7.22648,-1.19445 -9.53101,0.9085 -1.61809,1.47656 -1.71167,1.70242 -0.452,1.0909 0.8737,-0.42413 2.1828,-0.75805 2.90909,-0.74203 0.93581,0.0206 0.68489,0.36497 -0.86128,1.18193 -3.75096,1.98191 -4.72793,3.2233 -4.71613,5.99258 0.006,1.438 0.32838,3.10546 0.71613,3.70546 0.53703,0.83099 0.70765,0.54192 0.71614,-1.21324 0.013,-2.69031 0.63902,-4.60494 1.50566,-4.60494 0.33639,0 0.2665,0.99003 -0.15532,2.20008 -1.40257,4.02341 -0.004,7.45075 3.53205,8.65979 0.0792,0.027 -0.20581,-0.95424 -0.63336,-2.18069 z m 4.13003,-1.39821 c -1.27883,-2.47289 -1.43025,-6.75059 -0.31287,-8.83838 0.70771,-1.32231 0.64065,-1.38596 -0.70254,-0.66709 -2.74662,1.46992 -3.49392,7.79181 -1.4032,11.8701 0.5208,1.0159 0.95367,1.12333 2.08552,0.51759 1.32778,-0.71063 1.3512,-0.91334 0.33309,-2.88222 z m 31.64037,-0.039 c 0.9744,-3.61881 -0.15651,-8.3355 -2.2699,-9.46652 -1.34319,-0.71887 -1.41025,-0.65522 -0.70254,0.66709 1.116,2.08525 0.96647,6.36449 -0.30858,8.83012 -0.99367,1.92161 -0.97891,2.17226 0.16633,2.81312 1.71563,0.96013 2.2125,0.50644 3.11469,-2.84381 z m 4.05716,-0.4259 c 0.24924,-1.32878 0.10807,-3.40599 -0.31375,-4.61604 -0.42181,-1.21005 -0.49171,-2.20008 -0.15534,-2.20008 0.86669,0 1.49265,1.91463 1.50567,4.60494 0.009,1.75516 0.17913,2.04423 0.71615,1.21324 0.38778,-0.6 0.71003,-2.26746 0.71614,-3.70546 0.0116,-2.76927 -0.96516,-4.01067 -4.71614,-5.99258 -1.54619,-0.81696 -1.79709,-1.1613 -0.86131,-1.18193 0.72632,-0.016 2.03542,0.3179 2.90909,0.74204 1.25971,0.61151 1.16611,0.38565 -0.452,-1.09091 -2.30451,-2.10295 -7.25244,-2.57459 -9.53098,-0.9085 -1.18502,0.86653 -1.04255,1.03191 1.5608,1.8119 1.57571,0.47209 3.4568,1.51239 4.18021,2.31179 1.60124,1.76929 2.29477,7.81738 1.24262,10.83562 -0.74552,2.13859 -0.72189,2.1718 0.99091,1.3914 1.14946,-0.52371 1.91098,-1.6328 2.20793,-3.21543 z m -23.10058,1.69937 c 0.57876,-0.69734 0.41447,-1.16695 -0.63818,-1.82435 -1.26379,-0.78924 -1.4176,-0.68737 -1.4176,0.93906 0,1.99378 0.8368,2.35413 2.05578,0.88529 z m 5.21694,-0.88526 c 0,-1.62643 -0.15381,-1.7283 -1.4176,-0.93906 -1.05265,0.6574 -1.21694,1.12701 -0.63818,1.82435 1.21898,1.46883 2.05578,1.10849 2.05578,-0.88529 z m -34.46764,-0.0533 c -0.2428,-0.63271 -0.48284,-4.6418 -0.53345,-8.90909 l -0.092,-7.75871 -0.64323,5.09091 c -0.35377,2.8 -1.08997,6.62927 -1.63599,8.5095 -0.8901,3.065 -0.87047,3.45119 0.18977,3.73381 2.4618,0.65624 3.15696,0.4856 2.71489,-0.66643 z m 64.00692,0.71739 c 1.47454,-0.39577 1.49781,-0.55595 0.55345,-3.80825 -0.54225,-1.86731 -1.27535,-5.68602 -1.62916,-8.48602 l -0.6432,-5.09091 -0.092,7.7587 c -0.0509,4.26729 -0.29062,8.27638 -0.53346,8.90909 -0.47447,1.23656 -0.0611,1.36304 2.34437,0.71739 z m -31.10633,-4.22801 c 0.59927,-1.22987 0.79789,-2.97072 0.51251,-4.49176 -0.40197,-2.14272 -0.75295,-2.48359 -2.55702,-2.48359 -1.72851,0 -2.17353,0.3754 -2.56669,2.16548 -0.72909,3.31974 1.01171,7.66911 2.83287,7.07776 0.43993,-0.14285 1.24022,-1.16341 1.77833,-2.26789 z m -0.0584,-14.24809 c 0.14742,-0.77503 -0.42953,-1.09091 -1.99258,-1.09091 -2.07498,0 -2.83382,0.94207 -1.68466,2.09129 0.86473,0.86472 3.45651,0.15963 3.67724,-1.00038 z m -2.01091,-6.80505 c 1,0 2.43556,0.27419 3.19011,0.60932 2.15273,0.95606 1.07709,-1.22499 -1.24844,-2.53154 -1.72596,-0.9697 -2.15738,-0.9697 -3.88334,0 -2.32553,1.30655 -3.40117,3.4876 -1.24844,2.53154 0.75455,-0.33513 2.19011,-0.60932 3.19011,-0.60932 z m -30.27668,313.6502 c -0.74783,-1.27283 -2.16792,-2.8428 -3.15576,-3.4888 -2.01039,-1.3147 -2.02706,-1.3472 2.10806,4.11183 2.19578,2.89881 2.87838,2.49291 1.0477,-0.62303 z m 63.86112,-2.38387 1.54356,-2.08417 -1.60291,0.85785 c -1.60553,0.85926 -4.44058,4.85283 -4.41527,6.21958 0.0131,0.7114 1.37578,-0.80918 4.47462,-4.99326 z m -64.65643,-3.86969 c -0.25824,-1.59137 -1.20037,-3.34153 -2.31791,-4.30591 l -1.88283,-1.62478 -0.91733,2.62153 c -0.98029,2.80139 -0.44248,3.7734 2.10101,3.79733 0.65102,0.006 1.59109,0.50205 2.08905,1.10205 1.30758,1.57553 1.41255,1.39565 0.92801,-1.59022 z m 65.31104,0.48817 c 2.39171,-0.0257 2.91462,-1.04355 1.95099,-3.79733 l -0.91731,-2.62153 -1.88284,1.62478 c -1.13985,0.98363 -2.05985,2.71576 -2.33149,4.38952 -0.42487,2.61815 -0.37978,2.70247 0.84924,1.59023 0.71374,-0.64599 1.7629,-1.17954 2.33141,-1.18567 z m -71.72633,-5.62522 c 0.56573,-1.87251 -0.1679,-2.08406 -2.16444,-0.62416 -1.19202,0.87163 -1.24591,1.17894 -0.38801,2.21264 1.09965,1.325 1.8048,0.88616 2.55245,-1.58848 z m 78.21455,0.48199 c 0,-0.72823 -2.89171,-2.37818 -3.35534,-1.91451 -0.17695,0.17693 0.0204,1.22084 0.43796,2.31979 0.63091,1.65934 0.94255,1.8463 1.83855,1.10273 0.59338,-0.49246 1.07883,-1.17107 1.07883,-1.50801 z m -41.45454,-4.59239 c 0,-1.99849 -0.45353,-2.76119 -2.35942,-3.96793 l -2.35949,-1.4939 -0.57178,1.54576 c -0.35011,0.94642 -0.24597,1.85044 0.26851,2.33157 0.60538,0.56607 0.9336,0.53159 1.17367,-0.12329 0.3872,-1.05598 1.66669,-1.23191 1.66669,-0.22916 0,1.05013 1.37164,4.41098 1.80014,4.41098 0.20997,0 0.38168,-1.11331 0.38168,-2.47403 z m 3.27454,-0.4434 c 0.49455,-2.25151 1.44851,-2.84614 2.02851,-1.26439 0.24007,0.65488 0.56829,0.68936 1.17367,0.12329 0.51448,-0.48113 0.61862,-1.38515 0.26851,-2.33157 l -0.57178,-1.54576 -2.35949,1.4939 c -1.91876,1.21489 -2.35942,1.96396 -2.35942,4.01085 0,2.94902 1.13193,2.64657 1.82,-0.48632 z m -41.70589,1.59359 c 0.98805,-0.40533 0.49698,-1.2534 -2.72728,-4.71007 -2.16275,-2.31865 -3.93228,-3.99653 -3.93228,-3.72863 0,0.78765 4.66349,9.04013 5.07696,8.98415 0.20767,-0.0281 0.91984,-0.27356 1.5826,-0.54545 z m 82.62713,-3.67752 c 1.29229,-2.35074 2.34967,-4.49328 2.34967,-4.76118 0,-0.2679 -1.76953,1.40998 -3.93229,3.72863 -3.81171,4.08647 -3.98269,4.87132 -1.14465,5.25552 0.20763,0.0281 1.4349,-1.87222 2.72727,-4.22297 z m -88.4314,1.54682 c -0.78407,-1.1 -2.17832,-2.65455 -3.09833,-3.45455 -0.92001,-0.8 -0.39513,0.1 1.16642,2 3.12596,3.80349 4.16244,4.58386 1.93191,1.45455 z m 91.85765,-1.45455 c 1.5616,-1.9 2.08647,-2.8 1.16647,-2 -1.62603,1.41391 -4.7853,5.45455 -4.26479,5.45455 0.14254,0 1.53679,-1.55455 3.09832,-3.45455 z m -45.58567,-5.41818 c 1.192,-1.19199 1.09607,-2.52231 -0.21818,-3.02664 -1.42138,-0.54542 -3.27273,0.18222 -3.27273,1.28627 0,0.90508 1.42611,2.6131 2.18182,2.6131 0.24,0 0.82909,-0.39273 1.30909,-0.87273 z m -50.25291,-2.96876 c -1.15075,-1.71781 -12.26878,-14.68984 -14.16077,-16.52215 -1.58644,-1.53641 2.31348,5.20834 6.51807,11.27273 3.37531,4.86828 7.94385,8.92547 8.47307,7.5247 0.13761,-0.36422 -0.23605,-1.3881 -0.83037,-2.27528 z m 106.57633,-6.90101 c 5.22545,-7.81104 7.3168,-11.49863 5.45643,-9.62114 -1.23425,1.24563 -10.12,11.51899 -13.10094,15.14671 -2.8576,3.47778 -2.64917,4.83072 0.46153,2.99536 1.48814,-0.87806 4.30712,-4.22207 7.18298,-8.52093 z m -90.96231,1.47827 c -1.1736,-4.47231 -4.93037,-9.90678 -9.62853,-13.92845 -3.58608,-3.06971 -3.68541,-3.10698 -2.5792,-0.96781 0.63278,1.22367 2.71416,4.29674 4.62528,6.82904 3.79989,5.03497 5.27589,8.4682 5.27589,12.27197 v 2.47362 l 1.60766,-1.60766 c 1.50368,-1.50368 1.54888,-1.83165 0.6989,-5.07071 z m 69.85387,-0.55395 c 0.47993,-1.6 2.44538,-4.98097 4.36778,-7.51327 1.92233,-2.5323 4.01288,-5.60537 4.64568,-6.82904 1.10625,-2.13917 1.0069,-2.1019 -2.5792,0.96781 -4.68437,4.00989 -8.45433,9.45351 -9.61753,13.88743 -0.81338,3.10034 -0.7648,3.56993 0.51709,4.9953 l 1.41484,1.57326 0.18938,-2.08621 c 0.10422,-1.1474 0.58211,-3.39528 1.06196,-4.99528 z m -67.52916,-15.48995 c -0.0528,-0.11946 -0.91309,-0.0121 -1.91176,0.23852 -1.80103,0.45203 -1.80756,0.48298 -0.80489,3.81458 0.55597,1.84736 1.25263,5.6673 1.54812,8.48876 l 0.53726,5.1299 0.36363,-8.72727 c 0.2,-4.8 0.32044,-8.82502 0.26764,-8.94449 z m 64.73549,4.09022 c 0.97709,-3.36472 0.96865,-3.4044 -0.82102,-3.85358 -0.99454,-0.24962 -1.85149,-0.3561 -1.90429,-0.23664 -0.0531,0.11947 0.0378,4.14449 0.20153,8.94449 l 0.29752,8.72727 0.6195,-5.09091 c 0.34072,-2.79999 1.06378,-6.62078 1.60676,-8.49063 z m -31.68705,10.49063 c -0.15462,-0.80288 -0.90895,-1.27272 -2.04335,-1.27272 -1.1344,0 -1.88873,0.46984 -2.04335,1.27272 -0.19149,0.9944 0.25535,1.27273 2.04335,1.27273 1.788,0 2.23484,-0.27833 2.04335,-1.27273 z m -13.45979,-0.91766 c -3.46211,-1.39423 -4.96152,-8.10817 -2.76109,-12.36331 1.01811,-1.96888 0.99469,-2.17159 -0.33309,-2.88222 -1.1312,-0.60539 -1.568,-0.49774 -2.10007,0.51759 -1.24872,2.38301 -1.59423,5.63316 -0.86575,8.1439 0.83062,2.86288 4.85084,7.34221 6.52822,7.27378 0.71469,-0.0292 0.54255,-0.28267 -0.46822,-0.68974 z m 25.83135,-1.67495 c 3.63651,-3.75186 4.47076,-8.71146 2.19578,-13.05299 -0.53207,-1.01533 -0.96887,-1.12298 -2.10007,-0.51759 -1.32778,0.71063 -1.3512,0.91334 -0.33309,2.88222 2.20043,4.25514 0.70102,10.96908 -2.76109,12.36331 -1.01077,0.40707 -1.18291,0.6606 -0.46822,0.68974 0.62153,0.0254 2.1816,-1.03875 3.46669,-2.36469 z m -75.40169,0.71807 c -0.44069,-0.531 -2.40283,-3.99756 -4.3603,-7.70348 -3.40128,-6.43936 -3.57428,-6.63419 -3.90285,-4.39552 -0.29457,2.00707 0.26624,3.1102 3.91636,7.70349 2.34309,2.94853 4.45994,5.36096 4.7041,5.36096 0.24417,0 0.0834,-0.43445 -0.35731,-0.96545 z m 126.32038,-4.39551 c 3.65011,-4.59329 4.21091,-5.69642 3.91629,-7.70349 -0.32851,-2.23867 -0.50153,-2.04384 -3.90284,4.39552 -1.95745,3.70592 -3.91956,7.17248 -4.36029,7.70348 -0.44065,0.531 -0.60145,0.96545 -0.35731,0.96545 0.24415,0 2.36102,-2.41243 4.70415,-5.36096 z m -83.37741,3.64979 c -2.4639,-1.36726 -4.48823,-4.836 -4.51897,-7.74337 -0.0222,-2.09867 -0.15825,-2.31986 -0.77522,-1.26019 -0.41157,0.70689 -0.64707,2.49636 -0.52334,3.9766 0.17752,2.12353 0.74634,3.04152 2.69616,4.3511 1.35916,0.91287 2.99552,1.64816 3.63637,1.63399 0.81688,-0.018 0.66292,-0.30448 -0.515,-0.95813 z m 12.16148,-2.30477 c 1.80495,-2.84609 2.00088,-3.65355 1.45586,-6 -0.34633,-1.49123 -0.63753,-4.92042 -0.64706,-7.62042 -0.009,-2.7 -0.30494,-4.90909 -0.65643,-4.90909 -0.35149,0 -1.04844,-0.98844 -1.54888,-2.19655 -2.09076,-5.04761 -8.11207,-7.55032 -8.57563,-3.56439 -0.18502,1.59094 0.22371,2.04898 2.69454,3.01956 3.45637,1.35769 5.88153,4.88675 5.88218,8.55956 5.9e-4,3.23001 -4.17309,12.22066 -4.38901,9.45455 -0.078,-1 -0.0811,-2.26097 -0.007,-2.80216 0.0744,-0.54118 -0.0684,-1.51382 -0.31658,-2.16143 -0.74429,-1.93955 -1.80407,0.45316 -1.81702,4.10231 -0.0269,7.53645 4.32328,9.79693 7.92473,4.11806 z m 17.228,2.73208 c 1.50066,-1.002 2.47251,-3.70683 2.46138,-6.85014 -0.0131,-3.64915 -1.07272,-6.04186 -1.81701,-4.10231 -0.24851,0.64761 -0.39099,1.62025 -0.31659,2.16143 0.0744,0.54119 0.0713,1.80216 -0.007,2.80216 -0.21593,2.76611 -4.3896,-6.22454 -4.38902,-9.45455 6.6e-4,-3.67281 2.42582,-7.20187 5.88219,-8.55956 2.47083,-0.97058 2.87956,-1.42862 2.69454,-3.01956 -0.46356,-3.98593 -6.48487,-1.48322 -8.57564,3.56439 -0.50043,1.20811 -1.19738,2.19655 -1.54887,2.19655 -0.35149,0 -0.64683,2.20909 -0.65643,4.90909 -0.009,2.7 -0.30073,6.12919 -0.64706,7.62042 -0.54502,2.34645 -0.34909,3.15391 1.45586,6 1.99185,3.14074 3.62683,3.95837 5.46334,2.73208 z m 9.81949,-1.10317 c 1.94982,-1.30958 2.51869,-2.22757 2.69615,-4.3511 0.12378,-1.48024 -0.11171,-3.26971 -0.52335,-3.9766 -0.61694,-1.05967 -0.75302,-0.83848 -0.7752,1.26019 -0.0305,2.90737 -2.05505,6.37611 -4.51898,7.74337 -1.17789,0.65365 -1.33185,0.94006 -0.51498,0.95813 0.64087,0.0142 2.27724,-0.72112 3.63636,-1.63399 z m -55.33928,-3.8801 c -1.09227,-5.04399 -2.21002,-7.55105 -3.36656,-7.55105 -0.55032,0 -2.26796,-1.14499 -3.81696,-2.54443 -3.36431,-3.03945 -4.81005,-7.38053 -4.28338,-12.86164 0.29547,-3.07503 0.78984,-4.16144 2.64997,-5.82346 2.60075,-2.32377 1.55602,-2.71489 -1.79443,-0.67179 -3.19114,1.94596 -4.66906,5.55259 -4.66906,11.39413 v 4.90935 l 7.17743,6.98074 c 3.94758,3.83941 7.41383,7.74176 7.70276,8.67191 0.91747,2.95353 1.1997,1.18802 0.40023,-2.50376 z m 16.31729,2.08532 c -1.19877,-2.29804 -1.37497,-7.23836 -0.35393,-9.92388 0.66691,-1.75409 0.61836,-1.80031 -1.07882,-1.02703 -1.93259,0.88056 -3.02563,4.42099 -2.18379,7.07342 0.44179,1.39196 3.80278,5.87749 4.40399,5.87749 0.14073,0 -0.2136,-0.9 -0.78745,-2 z m 20.43865,-0.4836 c 0.53527,-2.85325 -0.93164,-6.60731 -2.58182,-6.60731 -1.65018,0 -3.11709,3.75406 -2.58182,6.60731 0.40349,2.15074 0.74946,2.4836 2.58182,2.4836 1.83236,0 2.17833,-0.33286 2.58182,-2.4836 z m 18.53382,-2.66703 c 1.24581,-3.00758 0.35665,-6.80578 -1.82604,-7.80028 -1.69716,-0.77328 -1.74575,-0.72706 -1.07884,1.02703 1.04764,2.75541 0.83375,7.64699 -0.44123,10.09215 l -1.13062,2.16826 1.80393,-1.69465 c 0.99207,-0.93206 2.1949,-2.63868 2.6728,-3.79251 z m 21.84145,-5.76596 6.49745,-6.1893 v -4.97351 c 0,-5.90902 -1.46509,-9.50452 -4.66909,-11.45829 -3.3504,-2.0431 -4.39512,-1.65198 -1.7944,0.67179 4.47077,3.99465 3.59986,13.95713 -1.63338,18.6851 -1.54902,1.39944 -3.26669,2.54443 -3.81702,2.54443 -1.13025,0 -2.25512,2.46136 -3.32371,7.27273 -1.0469,4.71377 -0.93781,5.03417 0.74291,2.18182 0.82488,-1.4 4.42371,-5.33065 7.99724,-8.73477 z m -88.35704,3.0984 c -0.98134,-1.5 -2.00432,-3.63145 -2.27332,-4.73656 -0.26899,-1.10511 -0.88415,-2.25056 -1.36701,-2.54545 -1.2197,-0.74488 -4.77549,-8.13386 -4.78903,-9.95169 -0.009,-1.2189 -0.13728,-1.29406 -0.69702,-0.4087 -1.71466,2.71213 2.02054,10.92465 8.13722,17.89117 2.8412,3.23595 3.20849,3.14358 0.98916,-0.24877 z m 95.18351,-4.18181 c 4.17557,-5.94358 6.07927,-11.34659 4.74277,-13.46059 -0.55971,-0.88536 -0.68793,-0.8102 -0.69702,0.4087 -0.0138,1.81783 -3.56931,9.20681 -4.78902,9.95169 -0.48284,0.29489 -1.09804,1.44034 -1.36706,2.54545 -0.26894,1.10511 -1.3365,3.31838 -2.37229,4.91838 -1.76327,2.72389 -1.7781,2.81649 -0.23309,1.45455 0.90757,-0.8 3.02968,-3.41818 4.71571,-5.81818 z m -51.36414,0.57541 c -1.21898,-1.46883 -2.05578,-1.10849 -2.05578,0.88529 0,1.62643 0.15381,1.72831 1.4176,0.93906 1.05265,-0.6574 1.21694,-1.12701 0.63818,-1.82435 z m 4.92967,-0.74149 c -0.22269,-0.22266 -0.90727,0.0121 -1.52138,0.52182 -0.99716,0.82756 -0.97956,1.02783 0.16422,1.87273 1.10574,0.81676 1.31367,0.74543 1.52138,-0.52183 0.13229,-0.80734 0.0582,-1.65007 -0.16422,-1.87272 z m -57.32907,-4.37938 c -1.73835,-3.43115 -2.05949,-4.83457 -1.789,-7.81818 0.31374,-3.46069 0.70927,-5.97364 1.31367,-8.34637 0.16765,-0.65813 -0.34075,-1.16777 -1.31366,-1.31686 -5.06316,-0.77589 -3.68865,12.51047 2.04881,19.80448 0.80415,1.02231 1.55136,1.85875 1.66047,1.85875 0.1091,0 -0.75503,-1.88182 -1.92029,-4.18182 z m 24.18179,2.98434 c 0.98901,-0.65861 3.29815,-2.638 5.13143,-4.39863 l 3.33323,-3.20114 -0.85326,-3.36047 c -0.57325,-2.25771 -1.3499,-3.54419 -2.3667,-3.92032 -0.83239,-0.30792 -2.85021,-2.52835 -4.48405,-4.93428 -2.99659,-4.41268 -6.41955,-7.52537 -9.2012,-8.36718 -1.25677,-0.38034 -1.64679,-0.0165 -2.31451,2.15915 l -0.80305,2.61657 3.91881,1.73308 c 4.54405,2.0096 6.20116,4.15388 6.7119,8.68513 0.63129,5.60083 -3.43626,9.45586 -7.98789,7.57052 -5.56283,-2.30421 -4.8721,-11.56677 0.86256,-11.56677 2.62779,0 3.6691,1.25443 3.6691,4.42005 0,2.9094 -1.35975,4.57074 -3.4196,4.17803 -1.54803,-0.29513 -2.169,-3.31991 -0.92387,-4.50014 0.66784,-0.63303 0.75519,-0.44328 0.37507,0.81474 -0.35534,1.17598 -0.15194,1.77179 0.71893,2.10597 2.33348,0.89544 3.40896,-3.1189 1.37934,-5.14852 -1.49706,-1.49706 -2.19435,-1.44201 -3.94805,0.31169 -1.90393,1.90393 -1.84929,4.94062 0.12677,7.04404 3.30199,3.5148 7.87323,1.09305 7.87323,-4.17107 0,-6.13199 -3.88806,-9.53167 -8.62371,-7.54048 -3.48692,1.46614 -4.91016,5.30612 -3.85665,10.40544 0.44539,2.15586 1.32619,4.70785 1.95733,5.67109 2.72289,4.15566 9.04756,5.84235 12.72484,3.3935 z m 68.84961,-0.22507 c 3.08291,-1.87976 4.45142,-4.10805 5.42894,-8.83952 1.05353,-5.09932 -0.36974,-8.9393 -3.85665,-10.40544 -4.73564,-1.99119 -8.62371,1.40849 -8.62371,7.54048 0,5.21678 4.26844,7.56375 7.77127,4.27299 2.08749,-1.9611 2.19069,-5.18402 0.22873,-7.14596 -1.75367,-1.7537 -2.45098,-1.80875 -3.94807,-0.31169 -2.0296,2.02962 -0.95411,6.04396 1.37934,5.14852 0.87091,-0.33418 1.07426,-0.92999 0.71898,-2.10597 -0.38014,-1.25802 -0.2928,-1.44777 0.37506,-0.81474 1.24509,1.18023 0.62414,4.20501 -0.92386,4.50014 -2.05985,0.39271 -3.41963,-1.26863 -3.41963,-4.17803 0,-3.16562 1.04131,-4.42005 3.66909,-4.42005 5.73469,0 6.42538,9.26256 0.86254,11.56677 -4.55156,1.88534 -8.61912,-1.96969 -7.98785,-7.57052 0.51076,-4.53125 2.16785,-6.67553 6.71185,-8.68513 l 3.91884,-1.73308 -0.80305,-2.61657 c -0.66771,-2.17566 -1.05775,-2.53949 -2.31448,-2.15915 -2.78167,0.84181 -6.20465,3.9545 -9.20123,8.36718 -1.63382,2.40593 -3.65164,4.62636 -4.48408,4.93428 -1.01672,0.37613 -1.79338,1.66261 -2.36669,3.92032 l -0.85323,3.36047 3.33323,3.20114 c 1.83331,1.76063 4.1424,3.74002 5.13142,4.39863 2.41076,1.60543 6.41069,1.50814 9.25324,-0.22507 z m 17.3416,-4.88098 c 3.58807,-7.09172 3.22814,-15.95002 -0.62408,-15.3597 -0.97287,0.14909 -1.48131,0.65873 -1.31367,1.31686 0.60444,2.37273 1,4.88568 1.31367,8.34637 0.27077,2.98666 -0.0509,4.38711 -1.79912,7.83828 -1.38291,2.72976 -1.69506,3.80938 -0.89077,3.08152 0.68095,-0.61623 2.17222,-2.96672 3.31397,-5.22333 z m -127.14886,3.12002 c -0.37733,-1.14162 -3.96322,-3.06712 -4.57416,-2.45618 -0.27687,0.27686 0.0212,1.30394 0.66226,2.2824 0.82433,1.25809 1.60723,1.66353 2.67371,1.38464 0.82943,-0.21691 1.38661,-0.76179 1.23819,-1.21086 z m 146.3922,-1.98797 c 0,-1.00142 -1.68858,-0.7655 -3.47454,0.48544 -1.9448,1.36219 -2.06277,2.29031 -0.34364,2.70337 1.22924,0.29535 3.81818,-1.86686 3.81818,-3.18881 z m -77.81818,1.89875 c 0.72357,-0.87186 0.71782,-1.31687 -0.0284,-2.21624 -0.74597,-0.89883 -1.0544,-0.93543 -1.53244,-0.18182 -0.79571,1.2543 -0.78451,3.48897 0.0175,3.48897 0.35098,0 1.0456,-0.49091 1.54356,-1.09091 z m 6.53433,-0.18182 c -0.007,-0.7 -0.28051,-1.6973 -0.60967,-2.21624 -0.47804,-0.75361 -0.78648,-0.71701 -1.53244,0.18182 -0.7464,0.89937 -0.75215,1.34438 -0.0284,2.21624 1.21221,1.46061 2.18436,1.37917 2.17069,-0.18182 z m -63.6575,-6.81871 c -2.33551,-6.61953 -0.28515,-13.57728 3.77249,-12.80161 2.02799,0.38767 2.13444,0.0172 0.51069,-1.77695 -3.70745,-4.09669 -9.13507,1.36541 -7.8998,7.94997 0.47322,2.52247 3.68822,9.62912 4.35615,9.62912 0.17551,0 -0.15727,-1.35024 -0.73953,-3.00053 z m 119.96048,-0.49418 c 2.35898,-4.65519 2.95185,-8.19687 1.90378,-11.37256 -1.29324,-3.91855 -4.75316,-5.24358 -7.41113,-2.83819 -1.80509,1.63362 -1.67127,2.29628 0.38437,1.90332 4.0576,-0.77567 6.108,6.18208 3.77251,12.80161 -1.41513,4.01092 -0.82255,3.79406 1.35047,-0.49418 z M 667.8986,548.96046 c -2.78275,-4.14981 -7.08851,-8.13561 -7.90581,-7.31831 -0.68965,0.68964 4.42453,7.34125 7.37878,9.59698 1.87786,1.43385 3.5018,2.607 3.60876,2.607 0.10696,0 -1.27982,-2.19855 -3.08173,-4.88567 z m 154.93226,1.7361 c 2.49767,-1.94327 7.30349,-8.44429 6.69338,-9.05441 -0.81767,-0.81766 -5.12371,3.16947 -7.90931,7.32345 -3.43767,5.12648 -3.33541,5.27204 1.21593,1.73096 z m -74.83054,1.44392 c 1.24102,-0.90744 1.172,-1.01159 -0.95193,-1.43636 -1.25942,-0.2519 -3.32036,-0.2519 -4.57978,0 -2.12393,0.42477 -2.19295,0.52892 -0.95193,1.43636 0.73593,0.53811 2.19469,0.97838 3.24182,0.97838 1.04713,0 2.50589,-0.44027 3.24182,-0.97838 z m 0.83091,-5.44228 c 5.7128,-4.14307 10.45832,-11.15035 10.42763,-15.39752 -0.0131,-1.79213 -0.0298,-1.78692 -1.18589,0.36363 -3.26531,6.07472 -8.61476,10.60597 -12.9248,10.94795 -4.25592,0.3377 -10.18298,-4.39731 -13.70414,-10.94795 -1.15593,-2.15055 -1.17295,-2.15576 -1.18589,-0.36363 -0.0189,2.58347 2.2592,7.25993 5.13192,10.53598 3.03666,3.46287 7.716,6.91856 9.36844,6.91856 0.68,0 2.51265,-0.92566 4.07273,-2.05702 z m -87.15507,-7.57934 c -2.07718,-3.18318 -9.12136,-16.96616 -10.77454,-21.08199 -0.92186,-2.2951 -1.78648,-4.06253 -1.92137,-3.92763 -0.1349,0.13489 0.19977,2.33997 0.74369,4.90016 1.35726,6.38847 7.86661,19.18013 10.48229,20.59899 2.65327,1.43926 2.71512,1.41866 1.46993,-0.48953 z m 173.38154,-8.02059 c 3.15694,-6.26426 6.33854,-16.12956 5.47905,-16.98903 -0.13491,-0.1349 -0.99949,1.63253 -1.92138,3.92763 -1.67695,4.17509 -8.70865,17.91647 -10.83593,21.17565 l -1.12916,1.73004 2.33054,-1.20517 c 1.80931,-0.93563 3.16844,-2.86779 6.07688,-8.63912 z m -88.94509,4.80838 c 0.45527,-2.26671 0.82771,-5.0886 0.82771,-6.27087 0,-1.82827 -0.16306,-2.01424 -1.09091,-1.24419 -0.87033,0.72232 -1.31149,0.72232 -2.18182,0 -0.92785,-0.77005 -1.09091,-0.58408 -1.09091,1.24419 0,3.01822 1.54815,10.39217 2.18182,10.39217 0.28953,0 0.89891,-1.85458 1.35411,-4.1213 z m -47.19228,0.46074 2.56544,-0.0242 -1.71693,-1.43035 c -2.28528,-1.90382 -3.33789,-1.8043 -5.13937,0.48591 -1.97471,2.51044 -1.92151,3.54723 0.10904,2.12498 0.889,-0.62268 2.77081,-1.14303 4.18182,-1.15634 z m 96.25788,-0.53316 c -1.89557,-2.54132 -3.2056,-2.77258 -5.39229,-0.95193 l -1.75469,1.46089 2.58829,0.0242 c 1.42349,0.0133 3.22298,0.48835 3.99883,1.05564 2.0208,1.47766 2.28589,0.7253 0.55986,-1.5888 z m -91.87425,-2.39466 c 0,-1.02088 -0.50328,-1.41162 -1.81819,-1.41162 -2.15649,0 -2.23319,0.29059 -0.54545,2.06645 1.49015,1.56796 2.36364,1.32597 2.36364,-0.65483 z m 86.54545,-1.04798 c 0,-0.2 -0.81818,-0.36364 -1.81818,-0.36364 -1.27826,0 -1.81819,0.39596 -1.81819,1.33333 0,2.0606 0.7176,2.31272 2.2424,0.78788 0.7667,-0.76667 1.39397,-1.55757 1.39397,-1.75757 z m -48.72727,-2.53227 c 0,-4.12944 -5.04735,-14.67466 -9.0952,-19.0021 -1.7976,-1.92182 -3.26844,-4.14348 -3.26844,-4.93701 0,-0.79353 -0.32727,-1.64505 -0.72727,-1.89226 -0.45018,-0.27825 -0.72727,1.0321 -0.72727,3.43967 0,3.88992 0.41578,4.98459 4.75214,12.51216 1.53171,2.65883 2.05331,4.49995 2.01396,7.10835 -0.0596,3.97391 1.44349,5.66709 5.03208,5.66709 1.87025,0 2.02,-0.21463 2.02,-2.8959 z m 12.84531,1.82243 c 1.2157,-0.85152 1.5216,-1.80128 1.47949,-4.59362 -0.0393,-2.6084 0.48225,-4.44952 2.01396,-7.10835 4.33636,-7.52757 4.75214,-8.62224 4.75214,-12.51216 0,-2.40757 -0.27709,-3.71792 -0.72727,-3.43967 -0.4,0.24721 -0.72727,1.09873 -0.72727,1.89226 0,0.79353 -1.47084,3.01519 -3.26844,4.93701 -4.04785,4.32744 -9.0952,14.87266 -9.0952,19.0021 0,2.68127 0.14975,2.8959 2.02,2.8959 1.11099,0 2.70968,-0.48306 3.55259,-1.07347 z m -8.18284,-4.6399 c 0.53469,-0.86512 -0.38189,-8.10481 -1.02611,-8.10481 -0.64422,0 -1.5608,7.23969 -1.02611,8.10481 0.21156,0.34235 0.67331,0.62246 1.02611,0.62246 0.3528,0 0.81455,-0.28011 1.02611,-0.62246 z m -29.72929,-15.50639 c -0.97878,-3.82054 -2.31774,-6.18356 -3.07481,-5.42648 -0.10107,0.10106 0.70763,2.9084 1.79712,6.23854 2.21316,6.76483 3.07798,6.21518 1.27769,-0.81206 z m 60.49336,-5.41433 c -0.75033,-0.7503 -2.07825,1.51648 -3.03084,5.17361 -1.83636,7.05043 -1.17309,7.74002 1.10662,1.15048 1.16604,-3.3705 2.03193,-6.21634 1.92422,-6.32409 z m -29.03651,8.1308 c 0.85222,-2.60842 0.78677,-3.14941 -0.72545,-5.99999 -0.91411,-1.7232 -1.82684,-3.13308 -2.02822,-3.13308 -0.20138,0 -1.1032,1.39091 -2.00407,3.09091 -1.60357,3.02594 -1.54088,5.75147 0.19694,8.56335 1.09149,1.76603 3.61608,0.37045 4.5608,-2.52119 z m -34.75694,-4.46256 c -1.28287,-3.82298 -2.84106,-7.03808 -3.79282,-7.82598 -2.37483,-1.96595 -2.5096,-0.27758 -0.29896,3.74531 1.03067,1.87558 2.76465,5.11919 3.85331,7.20801 1.08864,2.08882 2.07757,3.69965 2.19762,3.57961 0.12003,-0.12004 -0.76158,-3.13817 -1.95915,-6.70695 z m 68.53461,-4.83374 c 1.75331,-3.34343 1.4843,-4.62145 -0.65694,-3.12163 -1.32371,0.92714 -3.61869,6.48661 -5.85942,14.19395 -0.31796,1.0938 3.85302,-5.99341 6.51636,-11.07232 z m -62.71316,6.70868 c 0,-3.53385 -0.22358,-4.36363 -1.17573,-4.36363 -0.86742,0 -1.05803,0.4291 -0.72689,1.63636 0.24687,0.9 0.65414,2.86364 0.90505,4.36364 0.25091,1.5 0.57801,2.72727 0.72689,2.72727 0.14887,0 0.27068,-1.96364 0.27068,-4.36364 z m 54.51462,-3.81818 c 0.0167,-0.3 -0.46007,-0.54545 -1.06007,-0.54545 -0.85993,0 -1.07782,0.9624 -1.02909,4.54545 l 0.0618,4.54546 0.99826,-4 c 0.54902,-2.2 1.01207,-4.24546 1.02902,-4.54546 z m -34.3328,4.31367 c 0.9,-1.32202 1.63636,-2.61784 1.63636,-2.87959 0,-0.26175 -1.28291,-2.46081 -2.85091,-4.88678 l -2.85083,-4.41088 -1.14917,3.95282 c -0.632,2.17404 -1.14909,4.34843 -1.14909,4.83197 0,0.85776 3.6408,5.65409 4.36364,5.74859 0.2,0.0261 1.1,-1.03412 2,-2.35613 z m 16.17076,0.05 c 2.51542,-2.76505 2.55477,-3.07681 1.04379,-8.2744 l -1.14917,-3.95281 -2.85083,4.41087 c -1.568,2.42598 -2.85091,4.62503 -2.85091,4.88678 0,0.49907 3.13214,5.27962 3.4648,5.28823 0.1056,0.003 1.15971,-1.05867 2.34232,-2.35867 z m -21.52261,-12.36367 c 0.57083,-2.42674 1.42036,-2.554 2.42727,-0.36363 0.70654,1.53683 0.78458,1.47047 1.28298,-1.09091 0.60873,-3.12809 1.21171,-3.38132 2.70305,-1.13522 1.03273,1.5553 1.09775,1.50561 2.816,-2.152 0.96742,-2.05924 1.92255,-3.74407 2.12255,-3.74407 0.2,0 1.15513,1.68483 2.12255,3.74407 1.71825,3.65761 1.78327,3.7073 2.816,2.152 1.49134,-2.2461 2.09432,-1.99287 2.70305,1.13522 0.4984,2.56138 0.57644,2.62774 1.28298,1.09091 1.00691,-2.19037 1.85644,-2.06311 2.42727,0.36363 2.18466,9.28663 2.12444,9.14701 3.05855,7.09696 1.41069,-3.09613 1.06654,-9.1148 -0.68647,-12.00605 -0.8488,-1.4 -1.74764,-2.71703 -1.99724,-2.92674 -0.24967,-0.20971 -1.7008,-1.71625 -3.22465,-3.34787 l -2.77069,-2.96659 4.7984,-0.132 4.79839,-0.13201 -1.46072,2.86324 c -1.23193,2.41474 -1.30277,2.99432 -0.45251,3.7 0.79367,0.65869 1.10691,0.52588 1.47185,-0.62416 0.25506,-0.80349 1.428,-2.27232 2.60662,-3.26406 1.17869,-0.99175 2.14298,-2.15157 2.14298,-2.5774 0,-0.52833 -6.23643,-0.77422 -19.63636,-0.77422 -13.39993,0 -19.63636,0.24589 -19.63636,0.77422 0,0.42583 0.96432,1.58565 2.14294,2.5774 1.17866,0.99174 2.3516,2.46057 2.60666,3.26406 0.36494,1.15004 0.67818,1.28285 1.47185,0.62416 0.85026,-0.70568 0.77942,-1.28526 -0.45251,-3.7 l -1.46072,-2.86324 4.79839,0.13201 4.7984,0.132 -2.77069,2.96659 c -1.52385,1.63162 -2.97498,3.13816 -3.22465,3.34787 -0.2496,0.20971 -1.14844,1.52674 -1.99724,2.92674 -1.75301,2.89125 -2.09716,8.90992 -0.68647,12.00605 0.93411,2.05005 0.87389,2.18967 3.05855,-7.09696 z m -7.55724,6.0595 c 0,-0.76729 0.17011,-1.83836 0.37801,-2.38016 0.64432,-1.67906 -3.26855,-3.3915 -6.03203,-2.63989 l -2.3813,0.64767 1.8896,2.47739 c 1.98708,2.6052 2.79133,3.13872 4.87299,3.23263 0.78975,0.0356 1.27273,-0.47199 1.27273,-1.33764 z m 40.99331,0.96824 c 0.61171,-0.23475 1.95556,-1.53242 2.98625,-2.88371 l 1.87397,-2.45691 -2.38131,-0.64767 c -2.76349,-0.75161 -6.67637,0.96083 -6.03208,2.63989 0.20793,0.5418 0.37804,1.61287 0.37804,2.38016 0,1.40777 1.13098,1.75266 3.17513,0.96824 z m -48.38655,-0.93786 c 0.74537,-0.47248 0.51181,-0.97584 -1.00717,-2.17068 -1.08766,-0.85555 -2.2607,-1.55555 -2.60676,-1.55555 -0.34606,0 -0.62919,-0.32727 -0.62919,-0.72727 0,-0.4 0.98181,-0.72728 2.18181,-0.72728 2.66917,0 2.81773,-0.93133 0.32942,-2.06507 -2.31946,-1.05683 -3.6268,-1.06074 -6.5063,-0.0195 l -2.28016,0.82451 3.31944,3.07312 c 2.89759,2.6826 4.50867,3.76397 5.86488,3.93657 0.2,0.0254 0.80031,-0.23053 1.33403,-0.56885 z m 59.80357,-3.35869 3.31941,-3.08215 -2.28014,-0.82451 c -2.87949,-1.04124 -4.18684,-1.03733 -6.50626,0.0195 -2.48836,1.13374 -2.33978,2.06508 0.32939,2.06508 1.2,0 2.18181,0.32727 2.18181,0.72727 0,0.4 -0.28312,0.72727 -0.62916,0.72727 -0.34611,0 -1.51913,0.7 -2.60676,1.55556 -1.51651,1.19285 -1.75135,1.6977 -1.0072,2.16521 1.52058,0.95531 3.60371,-0.015 7.19891,-3.35323 z m -31.32291,-1.81552 c 0.58327,-1.08992 0.49505,-1.98912 -0.35673,-3.63636 -0.6224,-1.20362 -1.44211,-2.18839 -1.8216,-2.18839 -0.37949,0 -1.1992,0.98477 -1.8216,2.18839 -1.3352,2.58199 -0.43862,5.08434 1.8216,5.08434 0.77185,0 1.75207,-0.65159 2.17833,-1.44798 z m -38.04367,-2.75875 c 0.57739,-0.36716 0.15724,-0.95253 -1.27272,-1.77322 -2.02202,-1.16048 -2.13467,-1.15655 -2.13467,0.0744 0,2.15016 1.51208,2.90404 3.40739,1.69884 z m 75.00614,-1.43188 c 0.22887,-1.60347 0.20444,-1.60809 -1.9528,-0.36998 -1.46938,0.84331 -1.9024,1.43654 -1.32269,1.81209 1.46574,0.94939 3.03265,0.2595 3.27549,-1.44211 z m -54.8624,-3.4523 c -0.24553,-1.2 -0.79382,-2.61249 -1.21847,-3.13887 -0.98933,-1.22619 -4.902,-3.26148 -5.3701,-2.79339 -0.19625,0.19626 0.33804,1.93857 1.18732,3.87182 2.64769,6.02701 6.51441,7.50207 5.40125,2.06044 z m 36.78851,-1.92356 c 0.86887,-2.01972 1.42378,-3.82821 1.23309,-4.01886 -0.46313,-0.46312 -4.39142,1.59789 -5.34356,2.80355 -1.07113,1.35621 -1.7603,4.63845 -1.25208,5.96283 0.73651,1.91938 3.57586,-0.59435 5.36255,-4.74752 z m -44.91177,-4.25826 c -0.26068,-1.77611 -0.66827,-2.18182 -2.19193,-2.18182 h -1.8717 l 2.09031,2.18182 c 1.14967,1.2 2.13604,2.18182 2.19193,2.18182 0.0558,0 -0.0425,-0.98182 -0.21861,-2.18182 z m 49.66304,0 2.09033,-2.18182 h -1.87171 c -1.52364,0 -1.93127,0.40571 -2.19193,2.18182 -0.17614,1.2 -0.27447,2.18182 -0.21862,2.18182 0.056,0 1.04226,-0.98182 2.19193,-2.18182 z m -47.10606,-1.89394 c -0.24166,-0.24167 -0.86894,-0.2675 -1.39394,-0.0574 -0.58016,0.23216 -0.40784,0.40449 0.4394,0.43939 0.76666,0.0316 1.19621,-0.14032 0.95454,-0.38198 z m 44.36366,0 c -0.24167,-0.24167 -0.86894,-0.2675 -1.39396,-0.0574 -0.58015,0.23216 -0.40786,0.40449 0.43942,0.43939 0.76661,0.0316 1.19621,-0.14032 0.95454,-0.38198 z m -89.48893,-13.82495 c 0.24765,-0.64538 -0.28152,-2.85447 -1.17595,-4.90909 -6.00947,-13.80443 -8.26972,-24.46604 -8.26972,-39.00838 0,-12.97058 1.20617,-19.68106 6.06666,-33.75188 1.98569,-5.74843 3.61034,-11.09725 3.61034,-11.88626 0,-1.27828 -0.68711,-1.49031 -6.30753,-1.94635 -9.64084,-0.78225 -10.33359,0.0391 -13.73097,16.27991 -2.59531,12.40667 -3.56588,27.60162 -2.5803,40.39661 1.28275,16.65283 4.92132,32.89296 7.8618,35.08979 0.75887,0.56695 3.63651,0.90909 7.6461,0.90909 5.24496,0 6.51223,-0.21616 6.87957,-1.17344 z m 79.15817,-0.0993 c -0.94837,-2.40644 -3.92298,-17.65983 -4.82364,-24.73473 -1.16283,-9.13368 -1.15891,-31.20765 0.007,-40.538 0.49993,-4 1.70066,-11.03636 2.6683,-15.63636 0.9677,-4.6 1.76109,-8.77273 1.7632,-9.27273 0,-0.69243 -2.99942,-0.90909 -12.5976,-0.90909 h -12.60131 l 1.68407,7.45455 c 3.15607,13.97095 4.15244,23.29353 4.13905,38.72727 -0.0131,15.42921 -1.03461,24.98481 -4.13905,38.72727 l -1.68407,7.45455 h 13.04276 c 12.12785,0 13.00756,-0.0893 12.54124,-1.27273 z"
       id="path86919" />
    <text xml:space="preserve" style="font-style:normal;font-weight:normal;font-size:26.6667px;line-height:1.25;font-family:sans-serif;fill:#000000;fill-opacity:1;stroke:none" x="-1231.2582" y="754.43427" id="text110992" transform="rotate(-90)">
      <tspan id="tspan110990" x="-1231.2582" y="754.43427" style="font-size:26.6667px;fill:#000000;fill-opacity:1">GENESIS</tspan>
    </text>
  </g>
</svg>
